<svg xmlns="http://www.w3.org/2000/svg" width="612" height="792" preserveAspectRatio="none"><text style="font-size:9px;line-height:1;letter-spacing:-.3px"><tspan x="60" y="572"><tspan dx="0 0 0 0 0 0 0 0 0 0 0 0 0 0 0 0 0 0 0 0">Gaussian processes (GPs) </tspan><tspan dx="0 0 0 0 0 0 0 0 0 0 0 0 0 0 0 0 0 0 0 0 0 0 0 0 0 0" style="letter-spacing:-.9px">(Rasmussen and Williams, 2006)</tspan><tspan dx="-.6"> </tspan></tspan><tspan x="60" y="583"><tspan dx="0 0 0 0 0 0 0 0 5 0 5 0 0 0 0 5 0 0 0 0 0 5 0 0 0 0 5 0 0 0 0 0 0 0 0 0 0 5 0 0 0 0 0 5">provide a rich prior over functions. Their non-</tspan></tspan><tspan x="60" y="594"><tspan dx="0 0 0 0 0 0 0 0 0 0 0 1 0 0 0 0 0 1 0 0 0 0 0 0 0 0 0 0 0 0 0 1 0 0 0 0 0 0 0 0 0 0 0 1">parametric form, gold-standard uncertainty estimates </tspan></tspan><tspan x="60" y="604"><tspan dx="0 0 0 0 0 0 0 0 0 0 0 0 0 0 0 0 0 0 0 0 0 0 0 0 -0 0 0 0 0 0 0 0 0 0 0 0 0 0 0 0 0 0 0 0 0 0">and robustness to overfitting have made them common </tspan></tspan><tspan x="60" y="615"><tspan dx="0 0 0 0 0 0 3 0 0 3 0 0 0 0 0 0 0 0 0 0 3 0 0 0 0 3 0 0 0 0 0 0 0 3 0 0 0 3 0 0 0 0 0 0 0 0 3">place in geostatis- tics (Oliver and Webster, 1990), </tspan></tspan><tspan x="60" y="626"><tspan dx="0 0 0 0 0 0 0 0 0 0 0 0 0 4 0 0 0 0 0 0 4 0 0 4 0 0 0 0 4 0 0 0 0 0 0 4">epidemiology (Bhatt et al., 2017), spatio-temporal </tspan></tspan><tspan x="60" y="637"><tspan dx="0 0 0 0 0 0 0 0 0 0 0 0 0 0 0 0 0 0 0 0 0 0 0 0 0 0 0 0 0 0 0 0 0 0 0 0 0 0 0 0 0 0 0 0 0 0 0 0 0 0 0">modelling (Blangiardo et al., 2013; Wikle et al., 2019), </tspan></tspan><tspan x="60" y="648"><tspan dx="0 0 0 0 0 0 0 0 0 5 0 0 0 5 0 0 0 0 0 0 0 5 0 0 0 0 0 0 0 0 0 0 0 5 0 0 0 5">robotics and control (Deisenroth and Rasmussen, </tspan></tspan><tspan x="60" y="658"><tspan dx="0 0 0 0 0 0 4 0 0 0 4 0 0 0 0 0 0 0 0 4 0 0 0 0 0 0 0 0 0 0 0 0 4 0 0 0 0 0 0 0 0 4 0 0 4">2011) and Bayesian optimisation (Osborne et al., </tspan></tspan><tspan x="60" y="669"><tspan dx="0 0 0 0 0 0 0 3 0 0 0 0 0 0 0 0 3 0 0 0 3 0 0 0 0 0 3 0 0 0 0 0 0 0 0 0 0 3 0 0 3 0 0 0 0 0 3">2009). However, GPs scale infamously as O(N³) in </tspan></tspan><tspan x="60" y="680">computational complexity and O(N²) in memory, where</tspan></text><text x="62" y="545" style="font-size:12px;word-spacing:7px"><tspan x="62" y="545"><tspan dx="0 -7 7" style="font-weight:700">1 INTRODUCTION</tspan></tspan></text><text style="font-size:9px;line-height:1"><tspan x="80" y="254"><tspan dx="0 0 0 0 0 0 0 0 0 6 0 0 0 0 0 0 0 0 0 6 0 0 0 0 0 6 0 0 0 6">Gaussian processes (GPs) are typically </tspan></tspan><tspan x="80" y="264"><tspan dx="0 0 0 0 0 0 0 0 0 0 0 3 0 0 0 3 0 0 0 0 0 3 0 0 0 0 0 0 0 0 0 0 0 3 0 0 0 0 0 0 0 3">criticised for their unfavorable scaling in </tspan></tspan><tspan x="80" y="274"><tspan dx="0 0 0 0 0 11 0 0 0 0 0 0 11 0 0 0 0 0 0 0 0 11 0 0 0 11">both compu- tational and memory </tspan></tspan><tspan x="80" y="284"><tspan dx="0 0 0 0 0 0 0 0 0 0 0 0 0 0 4 0 0 0 4 0 0 0 0 0 4 0 0 0 0 0 0 0 0 0 4">requirements. For large datasets, sparse </tspan></tspan><tspan x="80" y="294"><tspan dx="0 0 0 0 0 0 0 0 0 0 0 0 1 0 0 0 1 0 0 0 0 0 0 1 0 0 0 0 0 1 0 0 0 1 0 0 0 0 0 1">variational GPs reduce these de- mands by </tspan></tspan><tspan x="80" y="304"><tspan dx="0 0 0 0 0 0 0 0 0 0 0 0 0 4 0 0 4 0 4 0 0 0 0 0 4 0 0 0 4 0 0 4">conditioning on a small set of inducing </tspan></tspan><tspan x="80" y="314"><tspan dx="0 0 0 0 0 0 0 0 0 0 1 0 0 0 0 0 0 0 0 1 0 0 1 0 0 0 0 0 0 0 0 0 1 0 0 0 1">variables designed to summarise the data. </tspan></tspan><tspan x="80" y="324"><tspan dx="0 0 0 3 0 0 0 0 0 3 0 0 0 0 3 0 0 0 0 0 0 0 0 3 0 0 0 3 0 0 0 0 0 3">In prac- tise however, for large datasets </tspan></tspan><tspan x="80" y="334"><tspan dx="0 0 0 0 0 0 0 0 0 0 2 0 0 0 0 2 0 0 2 0 0 0 0 0 0 0 0 2 0 0 0 0 0 0 0 2 0 0 0 0 2">requiring lots of inducing points, such as </tspan></tspan><tspan x="80" y="344"><tspan dx="0 0 0 0 0 0 0 0 0 0 0 0 0 0 0 0 3 0 0 0 0 0 0 0 3 0 0 0 0 0 3 0 0 0 0 3">low-lengthscale spatial data, even sparse </tspan></tspan><tspan x="80" y="353"><tspan dx="0 0 0 0 11 0 0 0 11 0 0 0 0 0 0 11 0 0 0 0 0 0 0 0 0 0 0 0 11">GPs can become computation- ally </tspan></tspan><tspan x="80" y="363"><tspan dx="0 0 0 0 0 0 0 0 0 0 0 7 0 0 0 0 0 0 0 7 0 0 7 0 0 0 7 0 0 0 0 0 0 7">expensive, limited by the number of </tspan></tspan><tspan x="80" y="373"><tspan dx="0 0 0 0 0 0 0 0 0 1 0 0 0 0 0 0 1 0 0 0 1 0 0 0 1 0 0 0 0 1 0 0 1 0 0 0 0 1">inducing points one can use. In this work, </tspan></tspan><tspan x="80" y="383"><tspan dx="0 0 0 3 0 0 0 0 0 0 0 3 0 3 0 0 0 3 0 0 0 0 0 3 0 0 3">we propose a new class of inter-domain </tspan></tspan><tspan x="80" y="393"><tspan dx="0 0 0 0 0 0 0 0 0 0 0 0 1 0 0 0 1 0 0 0 0 0 0 0 0 0 0 0 1 0 0 1 0 0 0 0 0 0 0 0 0 0 1">variational GP, constructed by projecting a </tspan></tspan><tspan x="80" y="403"><tspan dx="0 0 0 1 0 0 0 0 1 0 1 0 0 0 1 0 0 1 0 0 0 0 0 0 0 0 0 1 0 0 0 0 1 0 0 0 0 0 0 1">GP onto a set of compactly sup- ported B-</tspan></tspan><tspan x="80" y="413"><tspan dx="0 0 0 0 0 0 0 2 0 0 0 0 0 2 0 0 0 0 0 0 0 0 0 0 2 0 0 0 2 0 0 0 2 0 0 0 0 0 0 0 2">spline basis functions. The key benefit of </tspan></tspan><tspan x="80" y="423"><tspan dx="0 0 0 0 0 0 0 0 0 0 0 0 0 0 0 0 0 0 0 0 0 0 0 0 0 0 0 0 0 0 0 0 0 0 0 0 0 0 0 0 0 0">our approach is that the compact support of </tspan></tspan><tspan x="80" y="433"><tspan dx="0 0 0 0 1 0 0 0 0 0 0 0 0 1 0 0 0 0 0 1 0 0 0 0 0 0 0 0 0 1 0 0 0 0 0 0 1 0 0 0 1">the B-spline basis functions admits the use </tspan></tspan><tspan x="80" y="443"><tspan dx="0 0 0 4 0 0 0 0 0 0 4 0 0 0 0 0 0 4 0 0 0 0 0 0 0 4 0 0 4">of sparse linear algebra to significantly </tspan></tspan><tspan x="80" y="452"><tspan dx="0 0 0 0 0 0 0 0 0 0 0 0 0 0 0 0 0 0 0 0 0 0 0 0 0 0 0 0 0 0 0 0 0 0">speed up matrix op- erations and drastically </tspan></tspan><tspan x="80" y="462"><tspan dx="0 0 0 0 0 0 0 1 0 0 0 1 0 0 0 0 0 0 1 0 0 0 0 0 1 0 0 0 0 0 0 1 0 0 0 0 1">reduce the memory foot- print. This allows </tspan></tspan><tspan x="80" y="472"><tspan dx="0 0 0 3 0 0 3 0 0 0 0 3 0 0 0 0 0 0 0 0 0 0 0 3 0 0 0 0 0 3 0 0 0 0 0 3">us to very efficiently model fast- varying </tspan></tspan><tspan x="80" y="482"><tspan dx="0 0 0 0 0 0 0 0 1 0 0 0 0 0 0 0 0 0 1 0 0 0 0 1 0 0 0 0 1 0 0 1">spatial phenomena with tens of thousands </tspan></tspan><tspan x="80" y="492"><tspan dx="0 0 0 7 0 0 0 0 0 0 0 0 7 0 0 0 0 0 0 0 0 0 0 7 0 0 0 0 0 7">of inducing variables, where previous </tspan></tspan><tspan x="80" y="502">approaches failed.</tspan></text><path d="M63 76h486v-4H63Z" style="fill-opacity:1"/><text x="-18" y="2" font-family="serif"><tspan x="141" y="105" style="font-size:14px">Actually Sparse Variational Gaussian Processes</tspan></text><path d="M63 125h486" style="stroke:#000;stroke-width:.996px"/><path d="M63 691h58" style="stroke:#000;stroke-width:.398px"/><text x="62" y="712" style="font-size:7px;line-height:1" transform="translate(-1 2)"><tspan x="62" y="712"><tspan dx="0 0 0 0 0 0 0 0 0 0 0 0 2 0 0 2 0 0 0 2 0 0 0 0 2 0 0 0 0 0 0 0 0 0 0 0 0 0 2 0 0 0 0 0 0 0 0 0 0 2 0 0 2">Proceedings of the 26th International Conference on Artificial </tspan></tspan><tspan x="62" y="722"><tspan dx="0 0 0 0 0 0 0 3 0 0 0 0 0 0 0 3 0 0 0 3 0 0 0 0 0 0 0 0 0 0 3 0 0 0 0 0 0 0 0 0 3 0 0 0 0 0 3 0 0 0 0 0 0 0 0 0 3">Intel- ligence and Statistics (AISTATS) 2023, Valencia, Spain. </tspan></tspan><tspan x="62" y="732">PMLR: Volume 206. Copyright 2023 by the author(s).</tspan></text><text x="92" y="166" style="font-size:9px"><tspan x="92" y="166" style="font-size:9px">Harry Jake Cunningham<tspan style="font-size:9px;baseline-shift:super">1</tspan></tspan></text><text x="247" y="166" style="font-size:9px"><tspan x="247" y="166" style="baseline-shift:baseline">Daniel Augusto de Souza<tspan style="font-size:65%;baseline-shift:super">1</tspan></tspan></text><text x="438" y="166" style="font-size:9px"><tspan x="438" y="166">So Takao<tspan style="font-size:65%;baseline-shift:super">1</tspan></tspan></text><text x="155" y="179" style="font-size:9px"><tspan x="155" y="179">Mark van der Wilk<tspan style="font-size:65%;baseline-shift:super">2</tspan></tspan></text><text x="352" y="178" style="font-size:9px"><tspan x="352" y="178">Marc Peter Deisenroth<tspan style="font-size:65%;baseline-shift:super">1</tspan></tspan></text><text x="192" y="190" style="font-size:8px"><tspan x="192" y="190" style="font-size:8px">University College London<tspan style="font-size:65%;baseline-shift:super">1</tspan>, Imperial College London<tspan style="font-size:65%;baseline-shift:super">2</tspan></tspan></text><text x="157" y="226" style="font-size:10px"><tspan x="157" y="226" style="font-weight:700;font-size:10px">Abstract</tspan></text><text style="font-size:9px;line-height:1"><tspan x="313" y="467"><tspan dx="0 0 2 0 0 2 0 0 0 2 0 0 0 0 0 0 2 0 0 2 0 0 0 0 0 0 0 0 2 0 0 0 0 0 0 0 2 0 0 0 0 0 0 2">N is the number of training inputs, making them </tspan></tspan><tspan x="313" y="479"><tspan dx="0 0 0 0 0 0 0 0 0 0 0 0 0 0 0 0 0 0 0 0 0 0 0 0 0 0 0 0 0 0 0 0 0 0 0 0 0 0 0 0 0 0 0 0 0 0">unfeasi- ble for use with large datasets. To overcome </tspan></tspan><tspan x="313" y="491"><tspan dx="0 0 0 0 0 3 0 0 0 0 0 0 0 0 0 0 0 3 0 0 0 0 0 3 0 0 0 0 0 3 0 3 0 0 0 0 0 0 3 0 0 3">this limitation, there exist a number of different </tspan></tspan><tspan x="313" y="502"><tspan dx="0 0 0 0 0 0 0 0 0 0 0 0 0 0 0 0 0 0 0 0 0 0 0 0 0 0 0 0 0 0 0 0 0 0 0 0 0 0 0 0 0 0 0 0 0 0 0">approximate infer- ence techniques, including sparse </tspan></tspan><tspan x="313" y="514"><tspan dx="0 0 0 0 0 0 0 0 0 0 0 0 0 0 0 5 0 0 0 0 0 0 0 0 5 0 0 0 5 0 0 0 0 0 0 0 0 0 0 0 5">approximations (Snelson and Ghahramani, 2006; </tspan></tspan><tspan x="313" y="526"><tspan dx="0 0 0 0 0 0 0 0 0 0 0 0 0 0 0 0 0 0 3 0 0 0 3 0 0 0 0 0 0 0 0 0 0 3 0 0 0 0 0 3">Quinonero-Candela and Rasmussen, 2005; Titsias, </tspan></tspan><tspan x="313" y="538"><tspan dx="0 0 0 0 0 0 0 0 0 0 0 0 0 0 0 0 0 0 0 0 0 0 0 0 0 0 0 0 0 0 0 0 0 0 0 0 0 0 0 0 0 0 0 0 0">2009), state-space methods (Hartikainen and Särkkä, </tspan></tspan><tspan x="313" y="549"><tspan dx="0 0 0 0 0 0 1 0 0 0 0 0 0 1 0 0 1 0 0 0 0 1 0 0 0 0 0 1 0 0 0 0 0 0 0 0 0 0 1 0 0 1 0 0 0 0 1">2010; Särkkä et al., 2013; Hamelijnck et al., 2021) </tspan></tspan><tspan x="313" y="561"><tspan dx="0 0 0 0 0 0 0 0 0 0 0 0 0 0 0 0 0 0 0 0 0 0 0 0 0 0 0 0 0 0 0 0 0 0 0 0 0 0 0 0 0 0">and local-expert models (Tresp, 2000a,b; Rasmussen </tspan></tspan><tspan x="313" y="573"><tspan dx="0 0 0 0 2 0 0 0 0 0 0 0 0 0 0 0 2 0 0 0 0 0 2 0 0 0 0 0 0 0 0 0 0 2 0 0 0 2 0 0 0 2">and Ghahramani, 2001; Deisenroth and Ng, 2015; </tspan></tspan><tspan x="313" y="584"><tspan dx="0 0 0 0 0 0 6 0 0 6 0 0 0 0 6 0 0 0 0 0 0 6 0 0 6 0 0 0 0 0 0 0 0 0 0 0 6 0 0 0 0 0 0 6">Cohen et al., 2020). In particular, sparse GP </tspan></tspan><tspan x="313" y="596"><tspan dx="0 0 0 0 0 0 0 0 0 0 0 0 0 0 0 0 0 0 0 0 0 0 0 0 0 0 0 0 0 0 0 0 0 0 0 0 0 0 0 0 0 0 0 0 0 0 0 0">approximations have been devel- oped to reduce the </tspan></tspan><tspan x="313" y="608"><tspan dx="0 0 0 0 0 0 1 0 0 0 0 0 0 0 0 0 0 1 0 0 1 0 0 0 0 0 0 0 0 0 1 0 0 1 0 0 0 1 0 0 0 0 0 0 0 0 0 1 0 1">cubic complexity of inference by in- troducing a set </tspan></tspan><tspan x="313" y="619"><tspan dx="0 0 0 3 0 0 0 0 0 0 0 0 3 0 0 0 0 0 0 0 0 0 0 3 0 0 0 0 0 0 3 0 0 0 0 0 0 0 0 0 0 3">of inducing variables. Sparse approaches operate </tspan></tspan><tspan x="313" y="631"><tspan dx="0 0 0 0 0 0 0 0 0 0 0 0 0 0 0 0 0 0 0 0 0 0 0 0 0 0 0 0 0 0 0 0 0 0 0 0 0 0 0 0 0 0 0 0 0 0 0 0 0">under the premise that the training data can be sum- </tspan></tspan><tspan x="313" y="643"><tspan dx="0 0 0 0 0 0 0 0 1 0 0 1 0 1 0 0 0 1 0 0 1 0 0 0 1 0 0 0 0 0 0 0 0 0 0 0 0 0 0 1">marised by a set of M«N pseudo-inputs, effectively </tspan></tspan><tspan x="313" y="655"><tspan dx="0 0 0 0 0 0 0 0 0 0 0 0 0 0 0 0 0 0 0 0 0 0 0 0 0 0 0 0 0 0 0 0 0 0 0 0 0 0 0 0 0 0 0 0 0">reducing the rank of the covariance matrix. Amongst </tspan></tspan><tspan x="313" y="666"><tspan dx="0 0 0 0 0 0 6 0 0 0 0 0 0 0 0 6 0 0 0 0 0 0 0 0 0 0 0 6 0 0 0 0 0 0 0 0 0 0 0 0 0 0 6">these methods, variational approximations have </tspan></tspan><tspan x="313" y="678"><tspan dx="0 0 0 0 0 0 0 4 0 0 0 0 0 0 0 4 0 0 4 0 0 0 0 0 0 0 0 0 4 0 0 0 4 0 0 0 4">proved popular in improving GPs for regression </tspan></tspan><tspan x="313" y="690"><tspan dx="0 0 0 0 0 0 0 0 0 0 5 0 0 0 0 0 0 5 0 0 0 0 0 0 0 0 0 0 0 5 0 0 0 0 5 0 0 0 0 0 0 0 0 5 0 0 5">(Titsias, 2009), classifica- tion (Hensman et al., </tspan></tspan><tspan x="313" y="701"><tspan dx="0 0 0 0 0 0 0 0 4 0 0 0 0 0 0 0 0 0 0 4 0 0 0 0 0 0 0 0 0 0 0 0 4 0 0 0 0 0 0 0 0 4 0 0 4">2015b), stochastic optimisation (Hensman et al., </tspan></tspan><tspan x="313" y="713"><tspan dx="0 0 0 0 0 0 0 6 0 0 0 0 0 0 0 0 0 6 0 0 0 0 6 0 0 0 0 0 0 0 0 0 0 0 0 0 6">2013), inference with non-conjugate likelihoods </tspan></tspan><tspan x="313" y="725"><tspan dx="0 0 0 0 0 0 0 0 0 4 0 0 4 0 0 0 0 4 0 0 0 0 0 0 0 0 4 0 0 0 4 0 0 0 0 0 0 0 0 0 0 0 0 4">(Hensman et al., 2015b,a) and hierarchical non-</tspan></tspan><tspan x="313" y="736"><tspan dx="0 0 0 0 0 0 0 0 0 0 0 6 0 0 0 0 0 0 0 0 0 6 0 0 0 0 0 0 0 0 0 6 0 0 0 6">parametric modelling (Damianou and Lawrence, </tspan></tspan><tspan x="313" y="748">2013; Salimbeni and Deisenroth, 2017).</tspan></text><text style="font-size:9px;line-height:.9"><tspan x="314" y="327"><tspan dx="0 0 0 0 0 0 0 0 0 0 0 0 0 0 0 0 0 0 0 0 0 0 0 0 0 0 0 0 0 0 0 0 0 0 0 0 0 0 0 0 0 0 0 0 0">Figure 1: Illustration of the sparse matrix structures </tspan></tspan><tspan x="314" y="335"><tspan dx="0 0 0 0 0 0 0 0 1 0 0 1 0 0 0 1 0 0 0 0 0 0 0 0 1 0 0 0 0 0 0 1 0 0 0 1 0 0 1">induced by our proposed method for 1D regression </tspan></tspan><tspan x="314" y="343"><tspan dx="0 0 0 0 0 3 0 3 0 0 0 0 0 0 3 0 0 0 3 0 0 0 0 0 0 0 3 0 0 3 0 0 0 0 0 0 0 0 0 0 0 0 3">with a Matern 3/2 kernel. By constructing inter-</tspan></tspan><tspan x="314" y="352"><tspan dx="0 0 0 0 0 0 0 0 0 0 0 0 0 0 0 0 0 0 0 0 0 0 0 0 0 0 0 0 0 0 0 0 0 0 0 0 0 0 0 0 0 0 0 0 0 0 0 0 0">domain inducing variables u as RKHS projections of </tspan></tspan><tspan x="314" y="360"><tspan dx="0 0 0 0 0 0 0 0 0 0 0 0 0 0 0 0 0 0 0 0 0 0 0 0 0 0 0 0 0 0 0 0 0 0 0 0 0 0 0 0 0 0">the GP onto a set of compactly supported B-splines, </tspan></tspan><tspan x="314" y="368"><tspan dx="0 0 0 0 0 1 0 0 0 1 0 0 0 0 0 0 0 0 1 0 0 0 0 0 1 0 0 0 0 0 0 0 0 0 0 1 0 0 0 0 0 0 1 0 0 0 1">both the inducing point covariance matrix Kuu and </tspan></tspan><tspan x="314" y="376"><tspan dx="0 0 0 0 3 0 0 0 0 0 0 0 0 0 0 3 0 0 0 0 0 0 3 0 0 0 0 0 0 0 3 0 0 0 3 0 0 3 0 3 0 0 0 3">the covariance matrix between the GP f and the </tspan></tspan><tspan x="314" y="384"><tspan dx="0 0 0 0 0 0 0 0 0 1 0 0 0 0 0 0 0 0 0 1 0 0 0 1 0 0 0 0 0 0 1 0 0 0 0 0 0 0 1 0 0 0 0 1">inducing variables Kuf become sparse. This admits </tspan></tspan><tspan x="314" y="392"><tspan dx="0 0 0 0 0 0 0 3 0 0 0 0 0 0 3 0 0 0 0 0 0 0 3 0 0 3 0 0 0 0 0 0 0 0 0 0 0 3 0 0 0 3">sparse linear algebra to pre-compute the sparse </tspan></tspan><tspan x="314" y="400"><tspan dx="0 0 0 0 0 0 0 1 0 0 0 0 0 0 0 1 0 0 0 1 0 0 0 0 1 0 0 0 0 0 1 0 0 1 0 0 0 0 1 0 0 1">matrix product Kuf Kfu, which is used to compute </tspan></tspan><tspan x="314" y="408">the ELBO.</tspan></text><g transform="matrix(234.00342 0 0 -76.00789 315 292.75)"><path d="m-.004.531-.001.498h1.009V.034H-.004ZM.028.066v.006h.019V.066v.006h.019V.061h.001v.011h.018V.066h.001v.006h.018V.061h.001v.011h.018V.066h.001v.006h.018V.061h.001v.011h.018V.066h.001v.006H.18V.061h.001v.011h.018V.066H.2v.006h.019V.061v.011h.019V.066v.006h.019V.061h.001v.011h.018V.066h.001v.006h.018V.061h.001v.011h.018V.066h.001v.937H.006v-.002h.002V.945H.004V.942h.004V.887H.006V.885h.002V.829H.004V.826h.004V.771H.006V.769h.002V.713H.004V.71h.004V.655H.006V.653h.002V.597H.004V.594h.004V.539H.006V.537h.002V.481H.004V.478h.004V.423H.006V.421h.002V.365H.004V.362h.004V.307H.006V.305h.002V.249H.004V.246h.004V.191H.006V.189h.002V.133H.004V.13h.004V.075H.006V.073h.002V.066h.001v.006h.018V.061h.001ZM.009.132v.057h.038V.075H.009Zm.038 0v.057h.038V.075H.047Zm.039 0v.057h.037V.075H.086Zm.038 0v.057h.037V.075H.124Zm.038 0v.057H.2V.075H.162ZM.009.248v.057h.038V.191H.009Zm.038 0v.057h.038V.191H.047Zm.039 0L.085.305h.038V.191H.086Zm.038 0v.057h.037V.191H.124ZM.009.364v.057h.038V.307H.009Zm.038 0v.057h.038V.307H.047Zm.038 0v.057h.038V.307H.085ZM.009.48v.057h.038V.423H.009Zm.038 0v.057h.038V.423H.047Zm.229 0v.057h.038V.423H.276ZM.009.596v.057h.038V.539H.009Zm.229 0v.057h.038V.539H.238Zm.038 0v.057h.038V.539H.276ZM.2.712v.057h.037L.238.712V.655H.2Zm.038 0v.057h.038V.655H.238Zm.038 0v.057h.038V.655H.276ZM.162.828v.057h.037V.771H.162Zm.038 0v.057h.037V.771H.2Zm.038 0v.057h.038V.771H.238Zm.038 0v.057h.038V.771H.276ZM.123.944v.057h.038V.887H.123Zm.039 0v.057h.037V.887H.162Zm.038 0v.057h.037V.887H.2Zm.038 0v.057h.038V.887H.238Zm.038 0v.057h.038V.887H.276ZM.369.066v.006h.018V.066h.001v.006h.018V.061h.001v.011h.018V.066h.001v.006h.018V.061h.001v.011h.018V.066h.001v.006h.018V.061h.001v.011h.019V.066v.006h.019V.061h.001v.011H.54V.066h.001v.006h.018V.061H.56v.011h.018V.066h.001v.006h.018V.061h.001v.011h.018V.066h.001v.006h.018V.061h.001v.011h.018V.066h.001v.937H.346v-.002h.002V.945H.345V.942h.003V.887H.346V.885h.002V.829H.345V.826h.003V.771H.346V.769h.002V.713H.345V.71h.003V.655H.346V.653h.002V.625L.349.597H.345V.594h.004V.539H.347V.537h.002V.481H.345V.478h.004V.423H.347V.421h.002V.365H.345V.362h.004V.307H.347V.305h.002V.249H.345V.246h.004V.191H.347V.189h.002V.133H.345V.13h.004V.075H.347V.073h.002V.066H.35v.006h.018V.061h.001ZM.35.132v.057h.037V.075H.35Zm.114 0v.057h.038V.075H.464Zm.038 0v.057H.54V.075H.502Zm.039 0L.54.189h.038V.075H.541Zm.038 0v.057h.037V.075H.579Zm.038 0v.057h.037V.075H.617ZM.35.248v.057h.037V.191H.35Zm.114 0v.057h.038V.191H.464Zm.038 0v.057H.54V.191H.502Zm.038 0v.057h.038V.191H.54Zm.039 0v.057h.037V.191H.579ZM.35.364v.057h.037V.307H.35Zm.114 0v.057h.038V.307H.464Zm.076 0v.057h.038V.307H.54ZM.35.48.349.537h.038V.423H.35Zm.038 0v.057h.037V.423H.388Zm.038 0v.057h.037V.423H.426Zm.038 0v.057h.038V.423H.464Zm.076 0v.057h.038V.423H.54ZM.349.596v.057h.038V.539H.349Zm.038 0v.057h.038V.539H.388Zm.039 0v.057h.037V.539H.426Zm.038 0v.057h.037L.502.596V.539H.464Zm.153 0v.057h.037V.539H.617Zm-.23.116v.057h.038V.655H.387Zm.039 0v.057h.037V.655H.426Zm.038 0v.057h.037V.655H.464Zm.038 0v.057H.54V.655H.502Zm.076 0v.057h.038V.655H.579Zm.039 0v.057h.037V.655H.617Zm-.23.116v.057h.038V.771H.387Zm.039 0v.057h.037V.771H.426Zm.076 0v.057H.54V.771H.502Zm.076 0v.057h.038V.771H.578Zm.039 0v.057h.037V.771H.617Zm-.23.116v.057h.038V.887H.387Zm.039 0v.057h.037V.887H.426Zm.076 0v.057H.54V.887H.502Zm.038 0v.057h.038V.887H.54Zm.038 0v.057h.038V.887H.578Zm.039 0v.057h.037V.887H.617ZM.709.066v.006h.018V.066h.001v.006h.018V.061h.001v.011h.018V.066h.001v.006h.019V.061h.001v.011h.018V.066h.001v.006h.018V.061h.001v.011h.018V.066h.001v.006h.018V.061h.001v.011H.88V.066h.001v.006h.018V.061H.9v.011h.018V.066h.001v.006h.018V.061h.001v.011h.019V.066v.006h.019V.061h.001v.011h.018V.066h.001v.473l-.001.464H.687v-.002h.002V.945H.685V.942h.004V.887H.687V.885h.002V.829H.685V.826h.004V.771H.687V.769h.002V.713H.685V.71h.004V.655H.687V.653h.002V.597H.685V.594h.004V.539H.687V.537h.002V.481H.685V.478h.004V.423H.687V.421h.002V.365H.685V.362h.004V.307H.687V.305h.002V.249H.685V.246h.004V.191H.687V.189h.002V.133H.685V.13h.004V.075H.687V.073h.002V.066H.69v.006h.018V.061h.001ZM.69.132v.057h.037V.075H.69Zm.038 0v.057h.038V.075H.728Zm.038 0v.057h.038V.075H.766Zm.038 0v.057h.038V.075H.804Zm.039 0v.057H.88V.075H.843ZM.69.248v.057h.037V.191H.69Zm.038 0v.057h.038V.191H.728Zm.038 0v.057h.038V.191H.766Zm.038 0v.057h.038V.191H.804ZM.69.364v.057h.037V.307H.69Zm.038 0v.057h.038V.307H.728Zm.038 0v.057h.038V.307H.766ZM.69.48v.057h.037V.423H.69Zm.038 0v.057h.037V.48L.766.423H.728Zm.038 0v.057h.038V.423H.766Zm.191 0v.057h.038V.423H.957ZM.69.596v.057h.037V.539H.69Zm.229 0v.057h.038V.539H.919Zm.038 0v.057h.038V.539H.957ZM.842.712v.057H.88V.655H.842Zm.039 0v.057h.037V.655H.881Zm.038 0v.057h.037L.957.712V.655H.919Zm.038 0v.057h.038V.655H.957ZM.842.828v.057H.88V.771H.842Zm.039 0v.057h.037V.771H.881Zm.038 0v.057h.037V.771H.919Zm.038 0v.057h.037V.828L.995.771H.957ZM.804.944v.057h.038V.887H.804Zm.038 0v.057H.88V.887H.842Zm.039 0-.001.057h.038V.887H.881Zm.038 0v.057h.037V.887H.919Zm.038 0v.057h.037V.887H.957Z" style="fill:#fdfdfd;stroke-width:.000152509"/><path d="M.008.069v.002-.003Zm.001 0v.002-.003Zm.038 0v.002-.003Zm0 0v.002-.003Zm.038 0v.002-.003Zm.001 0v.002-.003Zm.037 0v.002-.003Zm.001 0v.002-.003Zm.037 0v.002-.003Zm.001 0v.002-.003Zm.037 0v.002-.003Zm.001 0v.002-.003Zm.038 0v.002-.003Zm0 0v.002-.003Zm.038 0v.002-.003Zm.001 0v.002-.003Zm.037 0v.002-.003Zm.001 0v.002-.003Zm.034 0v.002-.003Zm.001 0v.002-.003Zm.037 0v.002-.003Zm.001 0v.002-.003Zm.037 0v.002-.003Zm.001 0v.002-.003Zm.037 0v.002-.003Zm.001 0v.002-.003Zm.038 0v.002-.003Zm0 0v.002-.003Zm.038 0v.002-.003Zm.001 0v.002-.003Zm.037 0v.002-.003Zm.001 0v.002-.003Zm.037 0v.002-.003Zm.001 0v.002-.003Zm.037 0v.002-.003Zm.001 0v.002-.003Zm.034 0v.002-.003Zm.001 0v.002-.003Zm.037 0v.002-.003Zm.001 0v.002-.003Zm.038 0v.002-.003Zm0 0v.002-.003Zm.038 0v.002-.003Zm.001 0v.002-.003Zm.037 0v.002-.003Zm.001 0v.002-.003Zm.037 0v.002-.003Zm.001 0v.002-.003Zm.037 0v.002-.003Zm.001 0v.002-.003Zm.038 0v.002-.003Zm0 0v.002-.003Zm.038 0v.002-.003Zm.001 0v.002-.003ZM.007.073h.001zm.34 0h.001c.001 0 0 0 0 0zm.341 0h.001-.001c-.001 0-.001 0 0 0zM.007.075h.001zm.34 0h.001c.001 0 0 0 0 0zm.341 0h.001-.001c-.001 0-.001 0 0 0zM.047.132v.057H.009v.002h.038v.114H.009v.002h.038v.114H.009v.002h.038v.114H.009v.002h.038v.114H.009v.001h.038V.538h.038V.422h.038V.306h.039V.19H.2V.075v.114H.162V.075H.161v.114H.124V.075H.123v.114H.086V.075H.085v.114H.047V.075Zm.038.116v.057H.047V.191h.038zm.038 0v.057H.085L.086.248V.191h.037zm.038 0v.057H.124V.191h.037ZM.085.364v.057H.047V.307h.038zm.038 0v.057H.085V.307h.038ZM.085.48v.057H.047V.423h.038ZM.387.132v.057H.35v.002h.037v.114H.35v.002h.037v.114H.35v.002h.037v.114H.349v.002h.038v.114H.349v.001h.038v.347-.114h.038v.114h.001V.887h.037v.114-.23h.039v.23-.114H.54v.114-.114h.038v.114-.114h.038v.114h.001V.887h.037V.885H.617V.771h.037V.769H.617V.655h.037V.653H.617V.539h.037L.635.538H.616v.116H.578v.233H.54V.654H.502V.306H.54v.232h.038V.306h.039V.19h.037V.189H.617V.075H.616v.114H.579V.075H.578v.114H.54L.541.132V.075H.54v.114H.502V.075v.114H.464V.075v.347H.387V.075Zm.115.116v.057H.464V.191h.038zm.038 0v.057H.502V.191H.54Zm.038 0v.057H.54V.191h.038zm.038 0v.057H.579V.191h.037ZM.502.364v.057H.464V.307h.038zm.076 0v.057H.54V.307h.038ZM.425.48v.057H.388V.423h.037zm.038 0v.057H.426V.423h.037zm.039 0v.057H.464V.423h.038zm.076 0v.057H.54V.423h.038ZM.425.596v.057H.387V.596L.388.539h.037zm.038 0v.057H.426V.539h.037zm.039 0L.501.653H.464V.539h.038ZM.425.712v.057H.387V.655h.038zm.038 0v.057H.426V.655h.037zm.038 0v.057H.464V.655h.037zm.039 0v.057H.502V.655H.54Zm.076 0v.057H.578V.712L.579.655h.037ZM.425.828v.057H.387V.771h.038zm.038 0v.057H.426V.771h.037zm.077 0v.057H.502V.771H.54Zm.076 0v.057H.578V.771h.038ZM.007.189h.001zm.34 0h.001zm.341 0h.001-.001c-.001 0-.001 0 0 0zM.007.191h.001zm.34 0h.001zm.341 0h.001-.001c-.001 0-.001 0 0 0zM.007.305h.001-.001s-.001 0 0 0zm.34 0h.001zm.34 0h.002Zm-.68.002h.001-.001s-.001 0 0 0zm.34 0h.001zm.34 0h.002Zm-.68.114h.001-.001s-.001 0 0 0zm.34 0h.001zm.34 0h.001c.001 0 0 0 0 0zM.276.48v.058H.238v.116H.2v.117H.161v.116H.123v.114-.114h.038v.114h.001V.887h.037v.114H.2V.887h.037v.114h.001V.887h.038v.114-.114h.038V.885H.276V.771h.038V.769H.276V.655h.038V.653H.276V.539h.038V.537H.276V.423h.019L.314.422H.276Zm0 .116v.057H.238V.539h.038ZM.238.712.237.769H.2V.655h.038zm.038 0v.057H.238V.655h.038ZM.199.828v.057H.162V.771h.037zm.038 0v.057H.2V.771h.037zm.039 0v.057H.238V.771h.038ZM.007.423h.001-.001s-.001 0 0 0zm.34 0h.001zm.34 0h.001c.001 0 0 0 0 0zm-.68.114h.001-.001s-.001 0 0 0zm.34 0h.001zm.34 0h.001c.001 0 0 0 0 0zm-.68.002h.001-.001s-.001 0 0 0zm.34 0h.001zm.34 0h.001c.001 0 0 0 0 0zm-.68.114h.001-.001s-.001 0 0 0zm.34 0h.001zm.34 0h.001c.001 0 0 0 0 0zm-.68.002h.001-.001s-.001 0 0 0zm.34 0h.001zm.34 0h.001c.001 0 0 0 0 0zm-.68.114h.001-.001c-.001 0-.001 0 0 0zm.34 0h.001zm.34 0h.001c.001 0 0 0 0 0zm-.68.002h.001-.001c-.001 0-.001 0 0 0zm.34 0h.001zm.34 0h.001c.001 0 0 0 0 0zm-.68.114h.001-.001c-.001 0-.001 0 0 0zm.34 0h.001zm.34 0h.001c.001 0 0 0 0 0zm-.68.002h.001-.001c-.001 0-.001 0 0 0zm.34 0h.001zm.34 0h.001c.001 0 0 0 0 0zm-.681.114h.002zm.341 0h.001zm.34 0h.001Zm-.681.002h.002zm.341 0h.001zm.34 0h.001z" style="fill:#acacac;stroke-width:.000152509"/><path d="M.277.132v.057h.037V.075H.277ZM.238.248v.057h.038V.191H.238Zm.15 0v.057h.037V.191H.388ZM.2.364v.057h.038V.307H.2Zm.417 0v.057h.037V.307H.617Zm.264 0v.057h.037V.307H.881ZM.162.48v.057h.037V.423H.162ZM.124.596v.057h.037V.539H.124ZM.085.712v.057h.038V.655H.085Zm.455 0v.057h.038V.655H.54ZM.047.828v.057h.038V.771H.047Zm.302 0v.057h.038V.771H.349Zm-.34.116V1h.019l.018.001V.887H.009Zm.455 0v.057h.037V.887H.464Z" style="fill:#e1e21b;stroke-width:.000152509"/><path d="M.276.075v.114L.277.19h.037V.189H.277V.132ZM.238.19v.116h.038V.19Zm.038.058v.057H.238V.191h.038ZM.388.19.387.191v.114l.001.001h.037V.248a.299.299 0 0 0 0-.057V.19Zm.037.058v.057H.388V.191h.037zm.494 0v.057h.038V.191H.919ZM.2.306v.116h.038V.306Zm.038.058v.057H.2V.307h.038ZM.617.306v.001L.616.364l.001.057v.001h.037V.421H.617V.307h.019L.654.306ZM.162.422v.001L.161.48l.001.057v.001h.037L.2.537V.423L.199.422ZM.199.48v.057H.162V.423h.037zm.303 0v.057H.54V.423H.502ZM.124.539H.123v.114l.001.001h.037V.539L.142.538Zm.037.057v.057H.124V.539h.037ZM.085.655v.116h.038V.655L.104.654Zm.038.057v.057H.085V.655h.038ZM.54.655v.116h.038V.655L.559.654Zm.038.057v.057H.54V.655h.038ZM.047.771v.116h.038V.771Zm.038.057v.057H.047V.771h.038ZM.368.771h.019v.114H.349v.002h.038V.771H.349Zm-.34.116h.018V1L.047.944V.887H.009Zm.436 0H.463v.057l.001.057V.887h.037v.114L.502.944V.887Z" style="fill:#a6d932;stroke-width:.000152509"/><path d="M.426.248v.057h.037V.191H.426Zm.153.116v.057h.037V.307H.579Zm0 .116v.057h.037V.423H.579Zm.264 0L.842.537H.88V.423H.843Z" style="fill:#43ba6e;stroke-width:.000152509"/><path d="M.028.061zm.038 0c.001 0 0 0 0 0zm.038 0h.001zm.038 0h.001zm.039 0c-.001 0-.001 0 0 0zm.038 0zm.038 0c.001 0 0 0 0 0zm.038 0h.001zm.073 0h.001zm.038 0h.001zm.038 0h.001zm.039 0zm.038 0c.001 0 0 0 0 0zm.038 0H.56Zm.038 0h.001zm.039 0c-.001 0-.001 0 0 0zm.072 0h.001zm.039 0s-.001 0 0 0zm.038 0zm.038 0h.001zm.038 0h.001zm.038 0H.9Zm.039 0s-.001 0 0 0zm.038 0c.001 0 0 0 0 0zM.2.133V.19H.162v.116H.123v.116H.085v.116H.047v.116H.028L.009.655h.038L.046.712v.057H.009v.002h.037v.114H.009v.002h.038V1c-.001 0 0 0 0 0V.887h.038v.114-.114h.038v.114-.114h.038V.771H.2V.654h.038V.538h.038V.422h.038V.421H.276V.364L.277.307h.037V.305H.277V.191h.037V.19c0-.001 0-.001 0 0H.277L.276.189V.075v.114H.238V.075v.114H.2V.075ZM.276.19v.116H.238V.19ZM.2.248.199.305H.162V.191H.2Zm.038 0v.057H.2V.191h.038zm0 .058v.116H.2V.306ZM.161.364v.057H.124V.307h.037zm.038 0v.057H.162V.307h.037zm.077 0v.057H.238V.307h.038ZM.199.422.2.423v.114L.199.538H.162V.537L.161.48.162.423V.422ZM.123.48v.057H.085V.423h.038zm.038 0v.057H.124V.423h.037zm.077 0v.057H.2V.423h.038zm.038 0v.057H.238V.423h.038ZM.161.539v.115H.124L.123.653V.539h.001L.142.538ZM.085.596v.057H.047V.539h.038zm.038 0v.057H.085V.539h.038zm.076 0v.057H.162V.539h.037zm.039 0v.057H.2V.539h.038ZM.123.655v.116H.085V.655L.104.654ZM.085.712v.057H.047V.655h.038zm.076 0v.057H.123L.124.712V.655h.037zm.038 0v.057H.162V.655h.037ZM.085.771v.116H.047V.771Zm.038.057v.057H.085V.771h.038zm.038 0v.057H.123V.771h.038ZM.387.133v.058L.388.19h.037v.001a.299.299 0 0 1 0 .057v.058H.388L.387.305v.117h.077V.075v.114H.426V.075H.425v.114H.388V.075Zm.076.115v.057H.426V.191h.037ZM.425.364v.057H.388V.307h.037zm.038 0v.057H.426V.307h.037ZM.727.132v.057H.69v.002h.037v.114H.69v.002h.037v.114H.69v.002h.037v.114H.69v.002h.037v.114H.69v.002h.037v.114H.69v.002h.037v.114H.69v.002h.037v.114h.001V.887h.037v.114h.001V.887h.038L.803.944v.057h.001V.887h.038v.114-.114H.88v.114L.881.944V.887h.037v.114h.001V.887h.037v.114h.001V.887h.037V.885H.957V.771h.038V.769H.957V.655h.038V.653H.957V.539h.038V.537H.957V.423h.038V.421H.957V.307h.038V.305H.957V.191h.038V.189H.957V.075v.114H.919V.075H.918v.114H.881V.075H.88v.114H.843V.075H.842v.114H.804V.075v.114H.766V.075v.114H.728V.075H.727Zm.039.116v.057H.728V.191h.038zm.038 0v.057H.766V.191h.038zm.038 0v.057H.804V.191h.038zm.038 0v.057H.843V.191H.88Zm.038 0v.057H.881V.191h.037zm.039 0v.057H.919V.191h.038ZM.766.364v.057H.728V.307h.038zm.038 0v.057H.766V.307h.038zm.038 0v.057H.804V.307h.038zm.038 0v.057H.843V.307H.88Zm.038 0v.057H.881V.307h.037zm.039 0v.057H.919V.307h.038ZM.765.48v.057H.728V.423h.038zm.039 0v.057H.766V.423h.038zm.038 0v.057H.804V.423h.038zm.038 0v.057H.842L.843.48V.423H.88Zm.038 0v.057H.881V.423h.037zm.039 0v.057H.919V.423h.038ZM.765.596v.057H.728V.539h.037zm.039 0v.057H.766V.539h.038zm.038 0v.057H.804V.539h.038zm.038 0v.057H.842V.539H.88Zm.038 0v.057H.881V.539h.037zm.039 0v.057H.919V.539h.038ZM.765.712v.057H.728V.655h.037zm.039 0v.057H.766V.655h.038zm.038 0v.057H.804V.655h.038zm.038 0v.057H.842V.655H.88Zm.038 0v.057H.881V.655h.037zm.039 0L.956.769H.919V.655h.038ZM.765.828v.057H.728V.771h.037zm.039 0v.057H.766V.771h.038zm.038 0v.057H.804V.771h.038zm.038 0v.057H.842V.771H.88Zm.038 0v.057H.881V.771h.037zm.038 0v.057H.919V.771h.037ZM.005.132c0 .001 0 .001 0 0V.131Zm.34 0c0 .001 0 .001 0 0V.131Zm.34 0c0 .001 0 .001 0 0V.131ZM.617.248v.058H.578v.232H.54V.306H.502v.348h.019L.54.655.559.654l.019.001.019-.001h.019V.538h.038V.537H.617V.423h.019L.654.422H.617V.421L.616.364.617.307V.306h.037V.305H.617V.191h.019L.654.19H.617ZM.54.364v.057H.502V.307H.54Zm.076 0v.057H.579V.307h.037ZM.54.48v.057H.502V.423H.54Zm.076 0v.057H.579V.423h.037zm0 .116v.057H.578V.596L.579.539h.037zm-.076 0v.057H.502V.539H.54Zm.038 0v.057H.54V.539h.038ZM.004.248l.001.001V.247Zm.341 0v.001-.002Zm.34 0v.001-.002ZM.004.364v.001-.002Zm.341 0v.001-.002Zm.34 0v.001-.002ZM.004.48v.001-.002Zm.341 0v.001-.002Zm.34 0v.001-.002ZM.004.596v.001-.002Zm.341 0v.001-.002Zm.34 0v.001-.002ZM.349.655h.038v.114H.349v.002h.038V.654H.368ZM.004.712v.001-.002Zm.341 0v.001-.002Zm.34 0v.001-.002ZM.54.828v.059h.038V.769v.002H.54V.769Zm.038 0v.057H.54V.771h.038ZM.463.829v.058h.039V.771H.463ZM.501.828v.057H.464V.771h.037zm-.497 0v.001-.002Zm.341 0v.001-.002Zm.34 0v.001-.002ZM.387.886v.001H.349h.038v.114-.116ZM.004.944v.001-.002Zm.341 0v.001-.002Zm.34 0v.001-.002Z" style="fill:#77727c;stroke-width:.000152509"/><path d="M.2.132v.057h.038V.075H.2ZM.162.248v.057h.037L.2.248V.191H.162Zm.719 0v.057h.037V.191H.881ZM.124.364v.057h.037V.307H.124Zm.152 0v.057h.038V.307H.277Zm.15 0v.057h.037V.307H.426Zm.076 0v.057H.54V.307H.502Zm.341 0v.057H.88V.307H.843Zm.076 0v.057h.038V.307H.919ZM.085.48v.057h.038V.423H.085Zm.153 0v.057h.038V.423H.238Zm.643 0v.057h.037V.423H.881ZM.047.596v.057h.038V.539H.047Zm.153 0v.057h.038V.539H.2ZM.009.712v.057h.037V.712L.047.655H.009Zm.153 0v.057h.037V.655H.162Zm.604 0v.057h.038V.655H.766ZM.123.828v.057h.038V.771H.123Zm.605 0v.057h.037V.771H.728ZM.085.944v.057h.038V.887H.085Zm.605 0v.057h.037V.887H.69Z" style="fill:#1f8e8a;stroke-width:.000152509"/><path d="M.617.248v.057h.037V.191H.617ZM.54.596v.057h.038V.539H.54ZM.349.712v.057h.038V.655H.349Z" style="fill:#31608a;stroke-width:.000152509"/><path d="M.388.132v.057h.037V.075H.388ZM.426.075v.114h.038V.075L.463.132v.057H.426ZM.388.364v.057h.037V.307H.388Zm.191.175L.578.596v.057h.038V.539Zm.037.057v.057H.579V.539h.037zm.15 0v.057h.038V.539H.766ZM.728.712v.057h.037V.655H.728Zm.076 0v.057h.038V.655H.804ZM.766.828v.057h.038V.771H.766Z" style="fill:#423b83;stroke-width:.000152509"/><path d="M.238.132v.057h.038V.075H.238Zm.681 0v.057h.038V.075H.919ZM.2.248v.057h.038V.191H.2Zm.077 0v.057h.037V.191H.277Zm.68 0v.057h.038V.191H.957ZM.162.364v.057h.037V.307H.162Zm.076 0v.057h.038V.307H.238ZM.124.48v.057h.037V.423H.124ZM.2.48v.057h.038V.423H.2Zm.417 0v.057h.037V.423H.617ZM.085.596v.057h.038V.539H.085Zm.077 0v.057h.037V.539H.162Zm.642 0v.057h.038V.539H.804ZM.047.712v.057h.038V.655H.047Zm.077 0L.123.769h.038V.655H.124ZM.009.828v.057h.037V.771H.009Zm.076 0v.057h.038V.771H.085Zm.379 0v.057h.037V.771H.464Zm.076 0v.057h.038V.771H.54Zm.15 0v.057h.037V.771H.69ZM.047.944v.057h.038V.887H.047Zm.302 0v.057h.038V.887H.349Zm.379 0v.057h.037V.887H.728Z" style="fill:#46186a;stroke-width:.000152509"/><path d="M.426.132v.057h.037V.132L.464.075H.426Zm.455 0v.057h.037V.075H.881Zm.076 0v.057h.038V.075H.957ZM.843.248v.057H.88V.191H.843ZM.804.364v.057h.038V.307H.804Zm.153 0v.057h.038V.307H.957ZM.804.48v.057h.038V.423H.804Zm.115 0v.057h.038V.423H.919ZM.502.596v.057H.54V.539H.502Zm.077 0v.057h.037V.539H.579Zm.149 0v.057h.037V.539H.728Zm.114 0v.057H.88V.539H.842Zm.039 0v.057h.037V.539H.881ZM.69.712v.057h.037V.655H.69Zm.114.116v.057h.038V.771H.804ZM.766.944v.057h.037V.944L.804.887H.766Z" style="fill:#430154;stroke-width:.000152509"/><path d="M.027.067v.005H.009V.066H.008v.006L.007.073H.006v.002h.002V.13H.005v.003h.003v.056H.006v.002h.002v.055H.005v.003h.003v.056H.006v.002h.002v.055H.004v.003h.004v.056H.006v.002h.002v.055H.004v.003h.004v.056H.006v.002h.002v.055H.004v.003h.004v.056H.006v.002h.002V.71H.004v.003h.004v.056H.006v.002h.002v.055H.004v.003h.004v.056H.006v.002h.002v.055H.004v.003h.004v.056H.006v.002h.309V.066H.314v.006H.296V.061H.295v.011H.277V.066H.276v.006H.258V.061H.257v.011H.238V.066v.006H.219V.061v.011H.2V.066H.199v.006H.181V.061H.18v.011H.162V.066H.161v.006H.143V.061H.142v.011H.124V.066H.123v.006H.105V.061H.104v.011H.086V.066H.085v.006H.067V.061H.066v.011H.047V.066v.006H.028V.061H.027Zm.287.471v.463H.009V.075h.305ZM.368.067v.005H.35V.066H.349v.006L.348.073H.347v.002h.002V.13H.345v.003h.004v.056H.347v.002h.002v.055H.345v.003h.004v.056H.347v.002h.002v.055H.345v.003h.004v.056H.347v.002h.002v.055H.345v.003h.004v.056H.347v.002h.002v.055H.345v.003h.004L.348.625v.028H.346v.002h.002V.71H.345v.003h.003v.056H.346v.002h.002v.055H.345v.003h.003v.056H.346v.002h.002v.055H.345v.003h.003v.056H.346v.002h.309V.066H.654v.006H.636V.061H.635v.011H.617V.066H.616v.006H.598V.061H.597v.011H.579V.066H.578v.006H.56V.061H.559v.011H.541V.066H.54v.006H.522V.061H.521v.011H.502V.066v.006H.483V.061H.482v.011H.464V.066H.463v.006H.445V.061H.444v.011H.426V.066H.425v.006H.407V.061H.406v.011H.388V.066H.387v.006H.369V.061H.368Zm.286.471v.463H.349V.538L.35.075h.304ZM.708.067v.005H.69V.066H.689v.006L.688.073H.687v.002h.002V.13H.685v.003h.004v.056H.687v.002h.002v.055H.685v.003h.004v.056H.687v.002h.002v.055H.685v.003h.004v.056H.687v.002h.002v.055H.685v.003h.004v.056H.687v.002h.002v.055H.685v.003h.004v.056H.687v.002h.002V.71H.685v.003h.004v.056H.687v.002h.002v.055H.685v.003h.004v.056H.687v.002h.002v.055H.685v.003h.004v.056H.687v.002h.308L.996.538V.066H.995v.006H.977V.061H.976v.011H.957V.066v.006H.938V.061H.937v.011H.919V.066H.918v.006H.9V.061H.899v.011H.881V.066H.88v.006H.862V.061H.861v.011H.843V.066H.842v.006H.824V.061H.823v.011H.804V.066v.006H.786V.061H.785v.011H.766V.066v.006H.747V.061H.746v.011H.728V.066H.727v.006H.709V.061H.708Zm.287.471-.001.463H.69V.075h.305z" style="stroke-width:.000152509"/></g></svg>