<svg xmlns="http://www.w3.org/2000/svg" width="657.6" height="933.5">
    <text transform="matrix(1.33 0 0 1.33 57 93)"><tspan x="0" y="0" dx="0 0 0 0 0 -0.159402 0 -0.28692359 0 0 0 0 0 3.98505 0 0 0 3.98505 0 0 0 0 0 0 0 3.98505 0 -0.28692359 0 0 0 0 0 0 3.98505 -0.398505 0 3.98505 0 0 0 0 0 0 0 0 0 3.98505" style="font-size:16px;writing-mode:lr-tb;fill:#21722c;">InterpretabledeepGaussianprocessesforgeospatialtasks</tspan></text>
    <text transform="matrix(1.33 0 0 1.33 57 125)"><tspan x="0" y="0" dx="0 0 0 0 0 0 2.4906499 0 0 0 0 0 0 2.4906499 0 2.4906499" style="font-size:9.9626px;font-family:NimbusRomNo9L-Regu;writing-mode:lr-tb;fill:#000;">DanielAugustodeSouza</tspan><tspan x="101.5" y="-3.6" dx="0 0.49454361" style="font-size:7.2727px;font-family:NimbusRomNo9L-Regu;writing-mode:lr-tb;fill:#000;">1*</tspan></text>
    <text transform="matrix(1.33 0 0 1.33 215 125)"><tspan x="0" y="0" dx="0 2.4906499 0 0 0 0 0 2.4906499" style="font-size:9.9626px;font-family:NimbusRomNo9L-Regu;writing-mode:lr-tb;fill:#000;">,DanielGiles</tspan><tspan x="55.1" y="-3.6" style="font-size:7.2727px;font-family:NimbusRomNo9L-Regu;writing-mode:lr-tb;fill:#000;">1</tspan></text>
    <path d="M85 43a43 43 0 1 0-85 0 43 43 0 0 0 85 0" clip-path="url(#a)" style="fill:#97d221;" transform="matrix(.13 0 0 -.13 203 125)"/>
    <path d="M29 23h-5v36h5V23" clip-path="url(#b)" style="fill:#fff;" transform="matrix(.13 0 0 -.13 203 125)"/>
    <path d="M41 28h8c12 0 15 9 15 13 0 7-5 13-15 13h-8zm-5 31h14c13 0 19-10 19-18 0-9-7-18-19-18H36v36" clip-path="url(#c)" style="fill:#fff;" transform="matrix(.13 0 0 -.13 203 125)"/>
    <path d="M29 66c0-2-1-3-3-3s-3 1-3 3 1 4 3 4 3-2 3-4" clip-path="url(#d)" style="fill:#fff;" transform="matrix(.13 0 0 -.13 203 125)"/>
    <path d="M85 43a43 43 0 1 0-85 0 43 43 0 0 0 85 0" clip-path="url(#e)" style="fill:#97d221;" transform="matrix(.13 0 0 -.13 294 125)"/>
    <path d="M29 23h-5v36h5V23" clip-path="url(#f)" style="fill:#fff;" transform="matrix(.13 0 0 -.13 294 125)"/>
    <path d="M41 28h8c12 0 15 9 15 13 0 7-5 13-15 13h-8zm-5 31h14c13 0 19-10 19-18 0-9-7-18-19-18H36v36" clip-path="url(#g)" style="fill:#fff;" transform="matrix(.13 0 0 -.13 294 125)"/>
    <path d="M29 66c0-2-1-3-3-3s-3 1-3 3 1 4 3 4 3-2 3-4" clip-path="url(#h)" style="fill:#fff;" transform="matrix(.13 0 0 -.13 294 125)"/>
    <path d="M85 43a43 43 0 1 0-85 0 43 43 0 0 0 85 0" clip-path="url(#i)" style="fill:#97d221;" transform="matrix(.13 0 0 -.13 465 125)"/>
    <path d="M29 23h-5v36h5V23" clip-path="url(#j)" style="fill:#fff;" transform="matrix(.13 0 0 -.13 465 125)"/>
    <path d="M41 28h8c12 0 15 9 15 13 0 7-5 13-15 13h-8zm-5 31h14c13 0 19-10 19-18 0-9-7-18-19-18H36v36" clip-path="url(#k)" style="fill:#fff;" transform="matrix(.13 0 0 -.13 465 125)"/>
    <path d="M29 66c0-2-1-3-3-3s-3 1-3 3 1 4 3 4 3-2 3-4" clip-path="url(#l)" style="fill:#fff;" transform="matrix(.13 0 0 -.13 465 125)"/>
    <text transform="matrix(1.33 0 0 1.33 309 125)"><tspan x="0" y="0" dx="0 0 0 2.4906499 0 0 0 2.4906499 0 0 0 0 2.4906499" style="font-size:9.9626px;font-family:NimbusRomNo9L-Regu;writing-mode:lr-tb;fill:#000;">andMarcPeterDeisenroth</tspan><tspan x="107.1" y="-3.6" style="font-size:7.2727px;font-family:NimbusRomNo9L-Regu;writing-mode:lr-tb;fill:#000;">1,2</tspan></text>
    <text transform="matrix(1.33 0 0 1.33 57 144)"><tspan x="0" y="0" style="font-size:6.1768px;font-family:NimbusRomNo9L-Regu;writing-mode:lr-tb;fill:#000;">1</tspan><tspan x="3.6" y="2.9" dx="0 0 0 -0.1992525 -0.1195515 0 0 0 0 0 1.992525 0 0 0 0 -0.1195515 0 1.992525 0 0 0 0 0 0 1.992525 0 0 0 0 0 0 1.992525 0 0 0 0 0 1.992525" style="font-size:7.9701px;font-family:NimbusRomNo9L-Regu;writing-mode:lr-tb;fill:#000;">UniversityCollegeLondon,London,UnitedKingdom</tspan><tspan x="0" y="10" style="font-size:6.1768px;font-family:NimbusRomNo9L-Regu;writing-mode:lr-tb;fill:#000;">2</tspan><tspan x="3.6" y="12.9" dx="0 0 0 1.992525 0 0 0 1.992525 -0.3586545 0 0 0 0 1.992525 0 0 0 0 0 0 0 0 0 1.992525 0 0 0 0 0 0 1.992525 0 0 0 0 0 1.992525" style="font-size:7.9701px;font-family:NimbusRomNo9L-Regu;writing-mode:lr-tb;fill:#000;">TheAlanTuringInstitute,London,UnitedKingdom</tspan><tspan x="0" y="22.8" dx="0 0 0 0 0 0 0 0 0 0 0 0 0 0 1.992525 0 0 0 0 0 -0.43835551 1.992525" style="font-size:7.9701px;font-family:NimbusRomNo9L-Regu;writing-mode:lr-tb;fill:#000;">*Correspondingauthor.Email:</tspan></text>
    <text transform="matrix(1.33 0 0 1.33 191 174)"><tspan x="0" y="0" style="font-size:7.9701px;font-family:NimbusRomNo9L-Regu;writing-mode:lr-tb;fill:#417b7b;">daniel.souza.21@ucl.ac.uk</tspan></text>
    <text transform="matrix(1.33 0 0 1.33 57 221)"><tspan x="0" y="0" style="font-size:9.9626px;writing-mode:lr-tb;fill:#21722c;">1.</tspan></text>
    <text transform="matrix(1.33 0 0 1.33 73 221)"><tspan x="0" y="0" dx="0 0 0 0 -0.1793268" style="font-size:9.9626px;writing-mode:lr-tb;fill:#21722c;">Introduction</tspan></text>
    <text transform="matrix(1.33 0 0 1.33 57 241)"><tspan x="0" y="0" dx="0 0 3.1282563 0 0 3.1282563 0 0 0 0 3.1282563 0 3.1382191 0 0 0 0 0 0 0 0 0 3.1282563 0 -0.14943901 0 0 0 0 0 0 0 3.1282563 0 0 0 0 0 0 0 0 3.1282563 0 0 0 0 0 0 0 3.1282563 0 0 0 0 0 0 0 0 3.1282563 0 0 0 0 3.1282563 0 0 0 0 0 3.1382191 0 3.1282563 0 3.1282563 0 0 0 0 0 0 0 0 -0.249065 -0.14943901 3.1282563" style="font-size:9.9626px;font-family:NimbusRomNo9L-Regu;writing-mode:lr-tb;fill:#000;">Intherealmofnon-linearregressionproblems,Gaussianprocesses(GPs)appearasanalternativeto</tspan><tspan x="0" y="12" dx="0 0 0 0 0 0 3.1581442 0 0 0 -0.099625997 0 0 0 3.1581442 0 0 0 0 3.1581442" style="font-size:9.9626px;font-family:NimbusRomNo9L-Regu;writing-mode:lr-tb;fill:#000;">neuralnetworks(NNs)[</tspan></text>
    <text transform="matrix(1.33 0 0 1.33 189 257)"><tspan x="0" y="0" dx="0 0 0 0 0 0 0 0 0 3.1581442 0 0 3.1581442 -0.39850399" style="font-size:9.9626px;font-family:NimbusRomNo9L-Regu;writing-mode:lr-tb;fill:#417b7b;">RasmussenandWilliams</tspan></text>
    <text transform="matrix(1.33 0 0 1.33 324 257)"><tspan x="0" y="0" style="font-size:9.9626px;font-family:NimbusRomNo9L-Regu;writing-mode:lr-tb;fill:#000;">,</tspan></text>
    <text transform="matrix(1.33 0 0 1.33 332 257)"><tspan x="0" y="0" style="font-size:9.9626px;font-family:NimbusRomNo9L-Regu;writing-mode:lr-tb;fill:#417b7b;">2006</tspan></text>
    <text transform="matrix(1.33 0 0 1.33 358 257)"><tspan x="0" y="0" dx="0 0 3.1581442 0 0 0 0 0 0 3.1581442 3.1581442 0 0 0 0 3.1581442 0 0 0 0 0 0 0 0 0 0 0 3.1581442 0 0 0 3.1581442" style="font-size:9.9626px;font-family:NimbusRomNo9L-Regu;writing-mode:lr-tb;fill:#000;">].SharingacloserelationshipwithBayesian</tspan><tspan x="-226.3" y="12" dx="0 0 0 0 0 0 2.6998646 0 0 0 -0.099625997 0 0 0 0 2.6998646 0 0 2.7098272 0 0 -0.14943901 0 0 0 2.6998646 0 0 0 0 0 0 0 0 0 0 0 0 0 2.6998646 0 0 0 0 0 0 0 0 0 0 2.7098272 0 0 0 0 0 0 0 0 0 0 0 0 0 2.6998646 0 2.6998646 0 0 0 2.6998646 0 2.7098272 0 0 2.6998646 0 0 0 0 0 0 0 2.6998646" style="font-size:9.9626px;font-family:NimbusRomNo9L-Regu;writing-mode:lr-tb;fill:#000;">neuralnetworks,GPsprovideout-of-the-boxuncertaintyquantificationaspartoftheBayesianframe-</tspan><tspan x="-226.3" y="23.9" dx="0 -0.099625997 0 0 2.8493035 0 0 2.8493035 0 0 0 0 -0.099625997 2.8493035 0 0 2.8493035 0 0 -0.14943901 2.8493035 0 0 0 0 0 0 2.8493035 0 -0.19925199 -0.14943901 2.8493035 2.8493035 0 0 0 0 2.8493035 0 0 0 0 0 2.8493035 0 2.8493035 0 0 0 0 0 0 0 0 0 0 0 0 2.8493035 -0.049812999 0 0 0 -0.19925199 0 0 0 0 0 0 0 0 0 0 0 2.8493035 0 0 0 0 0 0 -0.39850399 2.8493035" style="font-size:9.9626px;font-family:NimbusRomNo9L-Regu;writing-mode:lr-tb;fill:#000;">workandunlikeNNstheyusuallyhaveasmallnumberofinterpretablehyper-parameters.Further,in</tspan><tspan x="-226.3" y="35.9" dx="0 0 0 0 0 0 0 0 2.5006125 0 2.5006125 0 0 0 0 0 0 0 2.4906499 0 0 2.5006125 0 0 -0.14943901 2.5006125 0 -0.19925199 -0.14943901 2.5006125 0 0 0 0 0 0 0 0 0 0 2.5006125 0 0 0 0 0 0 0 0 2.4906499 0 0 2.5006125 0 0 0 0 0 0 0 0 0 0 2.5006125 0 0 0 0 2.5006125 0 0 0 2.5006125 0 0 0 0 2.4906499 -0.099625997 0 0 0 0 0 2.5006125" style="font-size:9.9626px;font-family:NimbusRomNo9L-Regu;writing-mode:lr-tb;fill:#000;">contrasttoBayesianNNstheyhaveclosed-formsolutionsforposteriors.Baseduponthesefactorsand</tspan><tspan x="-226.3" y="47.8" dx="0 0 0 3.5666108 0 0 0 0 0 0 0 0 0 3.5765734 0 3.5666108 0 0 0 0 0 0 3.5765734 0 0 0 0 0 0 0 0 0 0 0 0 3.5666108 0 0 3.5765734 0 0 0 0 0 0 0 3.5666108 0 3.5666108 0 0 3.5765734 0 0 -0.14943901 3.5666108 0 0 0 0 0 0 0 0 0 0 0 3.5765734 0 3.5666108 0 0 3.5765734 0 3.5666108" style="font-size:9.9626px;font-family:NimbusRomNo9L-Regu;writing-mode:lr-tb;fill:#000;">theconnectiontooptimalinterpolationandkriging,weseemanyapplicationsofGPsingeospatial</tspan><tspan x="-226.3" y="59.8" dx="0 0 0 0 0 2.4906499" style="font-size:9.9626px;font-family:NimbusRomNo9L-Regu;writing-mode:lr-tb;fill:#000;">tasks[</tspan></text>
    <text transform="matrix(1.33 0 0 1.33 91 336)"><tspan x="0" y="0" style="font-size:9.9626px;font-family:NimbusRomNo9L-Regu;writing-mode:lr-tb;fill:#417b7b;">Krige</tspan></text>
    <text transform="matrix(1.33 0 0 1.33 121 336)"><tspan x="0" y="0" style="font-size:9.9626px;font-family:NimbusRomNo9L-Regu;writing-mode:lr-tb;fill:#000;">,</tspan></text>
    <text transform="matrix(1.33 0 0 1.33 128 336)"><tspan x="0" y="0" style="font-size:9.9626px;font-family:NimbusRomNo9L-Regu;writing-mode:lr-tb;fill:#417b7b;">1951</tspan></text>
    <text transform="matrix(1.33 0 0 1.33 154 336)"><tspan x="0" y="0" style="font-size:9.9626px;font-family:NimbusRomNo9L-Regu;writing-mode:lr-tb;fill:#000;">,</tspan></text>
    <text transform="matrix(1.33 0 0 1.33 161 336)"><tspan x="0" y="0" dx="0 0 0 0 0 0 2.4906499 0 0 2.4906499" style="font-size:9.9626px;font-family:NimbusRomNo9L-Regu;writing-mode:lr-tb;fill:#417b7b;">DiggleandRibeiro</tspan></text>
    <text transform="matrix(1.33 0 0 1.33 263 336)"><tspan x="0" y="0" style="font-size:9.9626px;font-family:NimbusRomNo9L-Regu;writing-mode:lr-tb;fill:#000;">,</tspan></text>
    <text transform="matrix(1.33 0 0 1.33 270 336)"><tspan x="0" y="0" style="font-size:9.9626px;font-family:NimbusRomNo9L-Regu;writing-mode:lr-tb;fill:#417b7b;">2007</tspan></text>
    <text transform="matrix(1.33 0 0 1.33 296 336)"><tspan x="0" y="0" style="font-size:9.9626px;font-family:NimbusRomNo9L-Regu;writing-mode:lr-tb;fill:#000;">,</tspan></text>
    <text transform="matrix(1.33 0 0 1.33 303 336)"><tspan x="0" y="0" dx="0 0 0 0 0 0 0 0 0 2.4906499 0 2.4906499" style="font-size:9.9626px;font-family:NimbusRomNo9L-Regu;writing-mode:lr-tb;fill:#417b7b;">Mubangizietal.</tspan></text>
    <text transform="matrix(1.33 0 0 1.33 389 336)"><tspan x="0" y="0" style="font-size:9.9626px;font-family:NimbusRomNo9L-Regu;writing-mode:lr-tb;fill:#000;">,</tspan></text>
    <text transform="matrix(1.33 0 0 1.33 396 336)"><tspan x="0" y="0" style="font-size:9.9626px;font-family:NimbusRomNo9L-Regu;writing-mode:lr-tb;fill:#417b7b;">2014</tspan></text>
    <text transform="matrix(1.33 0 0 1.33 423 336)"><tspan x="0" y="0" style="font-size:9.9626px;font-family:NimbusRomNo9L-Regu;writing-mode:lr-tb;fill:#000;">].</tspan><tspan x="-262.5" y="12" dx="0 0 0 0 0 0 0 0 0 0 0 0 3.7060871 0 -0.099625997 3.6961246 0 0 0 0 3.7060871 0 0 0 0 0 0 0 3.7060871 0 0 0 0 3.7060871 0 0 0 3.6961246 0 0 0 0 3.7060871 0 0 0 3.7060871 0 0 3.6961246 0 0 0 0 0 0 0 0 0 0 3.7060871 0 3.7060871 0 0 3.7060871 0 0 0 0 0 0 0 3.6961246 0 0 3.7060871" style="font-size:9.9626px;font-family:NimbusRomNo9L-Regu;writing-mode:lr-tb;fill:#000;">Nonetheless,twomajorproblemsarisewhenusingGPs:thescalabilityoftheapproachandthe</tspan><tspan x="-274.5" y="23.9" dx="0 0 0 0 0 0 0 0 0 0 3.5367229 0 0 0 0 0 3.5367229 0 3.5367229 0 0 0 0 0 0 0 0 0 0 0 0 3.5267603 0 3.5367229 0 0 0 0 0 0 3.5367229 0 0 0 0 0 0 0 0 0 0 0 3.5367229 0 0 0 3.5367229 0 0 3.5367229 0 0 0 0 3.5267603 0 0 0 0 0 0 0 0 3.5367229 0 3.5367229 0 0 3.5367229" style="font-size:9.9626px;font-family:NimbusRomNo9L-Regu;writing-mode:lr-tb;fill:#000;">simplisticnatureofcommonly-usedGPpriors.ComputationswithGPsscalecubicallyintheorder</tspan><tspan x="-274.5" y="35.9" dx="0 0 3.2577703 0 0 3.2677329 0 0 0 0 0 3.2577703 0 3.2577703 0 0 0 0 0 0 0 3.2677329 0 0 0 0 3.2577703 0 0 3.2577703 0 0 0 0 0 0 0 0 0 0 0 0 3.2677329 0 0 0 0 0 0 0 0 0 3.2577703 0 0 0 0 3.2577703 0 0 0 0 0 0 0 0 0 0 3.2677329 0 3.2577703 0 0 0 0 0 0 0 0 0 0 0 3.2577703" style="font-size:9.9626px;font-family:NimbusRomNo9L-Regu;writing-mode:lr-tb;fill:#000;">ofthenumberofsamples,whichhastraditionallyrestrictedtheirapplicationtomedium-scaletasks.</tspan><tspan x="-274.5" y="47.8" dx="0 0 3.3773215 3.387284 0 0 0 0 0 0 0 3.3773215 0 0 0 0 0 0 3.387284 0 0 3.387284 0 0 0 0 0 -0.0099625997 3.387284 0 3.387284 0 0 3.3773215 0 0 0 0 0 0 0 0 0 0 3.387284 0 0 0 0 0 3.3773215 0 0 0 0 0 0 3.387284 0 3.3773215 0 0 3.387284 -0.14943901 0 0 0 0 0 0 -0.249065 0 0 0 3.3773215 0 3.387284 0 0 3.3773215" style="font-size:9.9626px;font-family:NimbusRomNo9L-Regu;writing-mode:lr-tb;fill:#000;">AsaBayesianmethod,thequalityofitspredictionshighlydependsontheexpressivityoftheprior</tspan><tspan x="-274.5" y="59.8" dx="0 0 0 0 0 0 0 -0.19925199 0 0 0 0 0 2.8692288 0 0 2.8592663 0 0 0 0 0 0 0 2.8692288 0 0 0 2.8692288 0 -0.0099625997 2.8692288 0 0 2.8692288 0 0 0 0 0 2.8592663 -0.099625997 0 0 0 0 0 2.8692288 0 0 2.8692288 0 0 0 0 0 0 0 0 0 -0.647569 2.8592663 2.8692288 0 0 0 0 0 0 0 0 0 0 0 0 0 2.8692288 0 0 0 2.8592663" style="font-size:9.9626px;font-family:NimbusRomNo9L-Regu;writing-mode:lr-tb;fill:#000;">distribution.ThecommonlyusedRBFandMatérnkernelsarestationary,acharacteristicthatimpairs</tspan><tspan x="-274.5" y="71.7" dx="0 0 0 3.0485556 0 0 0 0 0 0 0 3.0485556 0 3.0485556 0 0 0 3.0385931 0 0 0 3.0485556 -0.249065 0 0 0 0 0 3.0485556 0 0 0 0 0 0 0 0 0 0 3.0485556 0 0 0 0 3.0485556 0 0 0 0 0 0 0 0 3.0485556 0 0 3.0485556 0 0 0 0 0 0 0 0 0 0 3.0385931 0 3.0485556 0 0 3.0485556 0 3.0485556 0 0 0 0 -0.049812999" style="font-size:9.9626px;font-family:NimbusRomNo9L-Regu;writing-mode:lr-tb;fill:#000;">themodelingofdatawithvaryingsmoothness,thus,hinderingtheapplicationofGPsingeophysical</tspan><tspan x="-274.5" y="83.7" dx="0 0 0 0 0 0 2.4906499 0 0 0 2.4906499 0 2.4906499 0 0 2.4906499 0 0 0 0 0 0 0 0 0 0 0 0 2.4906499 0 2.4906499 0 0 2.4906499 0 0 0 -0.099625997 0 0 2.4906499 0 0 0 0 0 2.4906499 0 0 2.4906499 0 0 0 0 0 0 0 0 2.4906499 0 0 0 0 0 0 0 0 -0.049812999 2.4906499" style="font-size:9.9626px;font-family:NimbusRomNo9L-Regu;writing-mode:lr-tb;fill:#000;">tasks,suchastheinterpolationofseasurfaceheightandAntarctictopography[</tspan></text>
    <text transform="matrix(1.33 0 0 1.33 479 448)"><tspan x="0" y="0" dx="0 0 0 0 0 2.4906499 0 2.4906499" style="font-size:9.9626px;font-family:NimbusRomNo9L-Regu;writing-mode:lr-tb;fill:#417b7b;">Benteetal.</tspan></text>
    <text transform="matrix(1.33 0 0 1.33 539 448)"><tspan x="0" y="0" style="font-size:9.9626px;font-family:NimbusRomNo9L-Regu;writing-mode:lr-tb;fill:#000;">,</tspan></text>
    <text transform="matrix(1.33 0 0 1.33 546 448)"><tspan x="0" y="0" style="font-size:9.9626px;font-family:NimbusRomNo9L-Regu;writing-mode:lr-tb;fill:#417b7b;">2023</tspan></text>
    <text transform="matrix(1.33 0 0 1.33 572 448)"><tspan x="0" y="0" style="font-size:9.9626px;font-family:NimbusRomNo9L-Regu;writing-mode:lr-tb;fill:#000;">].</tspan><tspan x="-374.7" y="12" dx="0 0 2.9290044 2.9290044 0 0 0 0 0 0 0 2.9290044 0 2.9190419 0 0 0 2.9290044" style="font-size:9.9626px;font-family:NimbusRomNo9L-Regu;writing-mode:lr-tb;fill:#000;">Asasolutiontobothproblems,</tspan></text>
    <text transform="matrix(1.33 0 0 1.33 246 464)"><tspan x="0" y="0" dx="0 0 0 0 0 0 0 0 2.9290044 0 0 2.9290044 0 -0.14943901" style="font-size:9.9626px;font-family:NimbusRomNo9L-Regu;writing-mode:lr-tb;fill:#417b7b;">DamianouandLawrence</tspan></text>
    <text transform="matrix(1.33 0 0 1.33 385 464)"><tspan x="0" y="0" style="font-size:9.9626px;font-family:NimbusRomNo9L-Regu;writing-mode:lr-tb;fill:#000;">[</tspan></text>
    <text transform="matrix(1.33 0 0 1.33 389 464)"><tspan x="0" y="0" style="font-size:9.9626px;font-family:NimbusRomNo9L-Regu;writing-mode:lr-tb;fill:#417b7b;">2013</tspan></text>
    <text transform="matrix(1.33 0 0 1.33 416 464)"><tspan x="0" y="0" dx="0 2.9290044 0 0 0 0 0 0 0 2.9190419 0 0 2.9290044 0 0 0 0 0 0 0 0 0 0 0 0 2.9290044" style="font-size:9.9626px;font-family:NimbusRomNo9L-Regu;writing-mode:lr-tb;fill:#000;">]proposedthecompositionaldeep</tspan><tspan x="-269.2" y="12" dx="0 0 0 0 0 0 0 0 2.9987426 0 0 0 0 0 0 2.9987426 0 0 0 0 2.9987426 0 0 0 0 2.9987426 0 0 0 2.9987426 -0.249065 0 0 0 0 0 0 0 0 0 2.9987426 0 0 0 0 0 0 0 0 0 2.98878 0 2.9987426 0 0 0 2.9987426 0 0 0 0 0 0 2.9987426 -0.249065 0 0 0 0 0 0 0 0 0 2.9987426 0 0 0 0 0 0 0 0 2.9987426 0 0 0 -0.249065" style="font-size:9.9626px;font-family:NimbusRomNo9L-Regu;writing-mode:lr-tb;fill:#000;">Gaussianprocess(DGP)modelwithvariationalinference.Inthisset-up,variationalinferenceallows</tspan><tspan x="-269.2" y="23.9" dx="0 0 0 2.8692288 0 0 2.8692288 0 0 2.8692288 0 2.8692288 0 0 0 0 0 0 0 0 0 0 0 0 2.8692288 0 2.8692288 0 0 0 0 0 0 0 0 0 0 2.8692288 0 0 2.8692288 0 0 0 0 0 2.8692288 0 2.8692288 0 0 0 0 0 0 2.8692288 0 0 0 2.8692288 0 0 2.8692288 0 0 0 2.8692288 0 2.8692288 0 0 0 0 0 0 0 0 0 2.8692288 0 0 2.8692288" style="font-size:9.9626px;font-family:NimbusRomNo9L-Regu;writing-mode:lr-tb;fill:#000;">fortheuseofmini-batchingtodisentanglethenumberofsamplesfromthecostofinference,andthe</tspan><tspan x="-269.2" y="35.9" dx="0 0 0 2.0124452 0 2.0024827 0 0 0 0 0 0 0 2.0124452 0 0 0 0 0 2.0024827 0 2.0124452 0 0 0 2.0024827 0 0 0 2.0124452 0 2.0024827 2.0124452 0 0 0 2.0124452 0 0 2.0024827 0 2.0124452 0 0 0 0 -0.14943901 -0.14943901 2.0024827 0 0 2.0124452 -0.14943901 0 0 0 0 0 0 -0.249065 0 0 0 2.0024827 0 2.0124452 0 0 2.0124452 0 0 0 0 -0.547943 2.0024827" style="font-size:9.9626px;font-family:NimbusRomNo9L-Regu;writing-mode:lr-tb;fill:#000;">useofmultiplelayersofGPs,akintoadeepNN,toimprovetheexpressivityoftheprior.Compositional</tspan><tspan x="-269.2" y="47.8" dx="0 0 0 0 2.9688549 0 -0.19925199 -0.1394764 2.9688549 0 0 0 2.9788175 0 0 0 0 0 0 0 0 0 0 0 2.9688549 0 2.9788175 0 0 0 0 0 0 0 0 0 2.9688549 0 0 0 0 0 0 0 2.9788175" style="font-size:9.9626px;font-family:NimbusRomNo9L-Regu;writing-mode:lr-tb;fill:#000;">DGPshaveseenapplicationsingeospatialproblems[</tspan></text>
    <text transform="matrix(1.33 0 0 1.33 347 528)"><tspan x="0" y="0" dx="0 0 0 0 0 0 0 2.9688549 0 2.9788175" style="font-size:9.9626px;font-family:NimbusRomNo9L-Regu;writing-mode:lr-tb;fill:#417b7b;">Cutajaretal.</tspan></text>
    <text transform="matrix(1.33 0 0 1.33 416 528)"><tspan x="0" y="0" style="font-size:9.9626px;font-family:NimbusRomNo9L-Regu;writing-mode:lr-tb;fill:#000;">,</tspan></text>
    <text transform="matrix(1.33 0 0 1.33 423 528)"><tspan x="0" y="0" style="font-size:9.9626px;font-family:NimbusRomNo9L-Regu;writing-mode:lr-tb;fill:#417b7b;">2018</tspan></text>
    <text transform="matrix(1.33 0 0 1.33 450 528)"><tspan x="0" y="0" dx="0 0 2.9788175 0 0 0 0 0 0 0 0 0 0 0 2.9688549 0 2.9788175 0 0 0 2.9688549" style="font-size:9.9626px;font-family:NimbusRomNo9L-Regu;writing-mode:lr-tb;fill:#000;">].Nonetheless,aswithNNs</tspan><tspan x="-295" y="12" dx="0 0 0 2.4009867 0 0 0 0 0 0 0 2.4009867 0 2.4009867 0 0 0 0 0 0 0 2.4009867 0 0 0 0 0 2.4009867 0 0 0 0 0 2.4009867 0 0 2.4009867 0 0 0 0 0 2.3910241 0 0 0 0 0 0 0 0 0 0 0 0 0 0 0 2.4009867 0 0 0 -0.099625997 0 0 2.4009867 0 2.4009867 0 0 0 0 0 -0.249065 2.4009867 0 0 0 2.4009867 -0.14943901 0 2.4009867 -0.14943901" style="font-size:9.9626px;font-family:NimbusRomNo9L-Regu;writing-mode:lr-tb;fill:#000;">theadditionofmultiplelayershinderthesimpleinterpretabilityenjoyedbyshallowGPs.Forexample,</tspan><tspan x="-295" y="23.9" dx="0 0 0 2.7197897 0 2.7197897 0 0 2.7197897 0 0 0 2.7197897 0 0 0 0 0 0 0 0 2.7197897 -0.049812999 0 0 0 0 0 0 0 0 0 0 0 0 0 2.7197897 0 0 2.7297523 0 0 0 0 0 -0.249065 2.7197897 0 0 2.7197897 0 0 0 2.7197897 0 0 0 0 0 0 0 0 0 2.7197897 -0.099625997 0 0 0 0 0 2.7197897 0 2.7197897 0 0 2.7197897" style="font-size:9.9626px;font-family:NimbusRomNo9L-Regu;writing-mode:lr-tb;fill:#000;">oneofthemostimportanthyperparametersforshallowGPswithstationarykernelsisthelengthscale.</tspan><tspan x="-295" y="35.9" dx="0 0 -0.249065 -0.14943901 0 2.4906499 0 0 2.4906499 0 0 0 0 0 0 2.4906499 0 0 0 2.4906499 0 2.4906499 2.4906499 0 0 0 0 0 0 0 0 0 2.4906499 -0.099625997" style="font-size:9.9626px;font-family:NimbusRomNo9L-Regu;writing-mode:lr-tb;fill:#000;">Giventhegeneralformofastationarykernel</tspan><tspan x="-295" y="88.7" dx="0 0 0 2.5006125 0 0 0 0 0 0 0 0 0 0 2.5105753 0 0 0 0 0 2.5004289 2.5044498 0 2.5006125 0 0 2.5105753 -0.049812999 0 0 0 0 0 0 0 0 0 0 0 0 2.5006125 0 0 0 2.5006125 0 0 0 0 0 0 0 0 0 2.5105753 0 0 2.5006125 0 0 0 0 0 0 0 0 2.5006125 0 2.5105753 0 0 0 0 0 0 2.5006125 -0.249065 0 0 0 0 0 0 0 2.5006125 0 2.5105753" style="font-size:9.9626px;font-family:txsys;writing-mode:lr-tb;fill:#000;">thelengthscalematrix횫isthehyperparameterthatdeterminestheamplitudeofspatialvariationinthe</tspan><tspan x="-295" y="100.6" dx="0 0 0 0 0 0 0 0 2.4906499 0 2.4906499 0 0 0 0 0 0 0 0 0 -0.39850399 2.4906499 0 0 2.4906499 0 0 2.4906499 0 0 0 2.4906499 0 2.4906499 2.4906499 0 0 0 0 0 0 0 0 2.4906499 0 2.4906499 0 0 0 0 2.4891047 2.9884541 0 0 0 2.4906499 0 2.4906499 0 0 2.4906499 -0.099625997" style="font-size:9.9626px;font-family:txsys;writing-mode:lr-tb;fill:#000;">process.Inparticular,forthecaseofazero-meanGPpriorfwithanRBFkernel</tspan></text>
    <text transform="matrix(1.33 0 0 1.33 484 657)"><tspan x="0" y="0" style="font-size:7.2727px;font-family:NimbusRomNo9L-Regu;writing-mode:lr-tb;fill:#417b7b;">1</tspan></text>
    <text transform="matrix(1.33 0 0 1.33 493 662)"><tspan x="0" y="0" dx="0 0 2.4906499 0 0 2.4906499 0 2.4906499 0 0 -0.249065 0 2.4906499" style="font-size:9.9626px;font-family:NimbusRomNo9L-Regu;writing-mode:lr-tb;fill:#000;">itcanbeshownthat</tspan></text>
    <text x="77.6" y="-6.8" transform="matrix(1.33 0 0 1.33 287 711)"><tspan x="-173.1" y="22.4" dx="0 0 0 0 2.4906499 0 0 0 2.4906499 0 0 2.4906499 0 0 0 0 0 0 0 0 2.4906499 0 2.4906499 0 0 2.4906499 0 0 0 -0.249065 -0.249065 0 0 -0.249065 -0.14943901 2.4906499 0 2.4906499 0 0 0 0 0 0 0 2.4906499 0 0 0 -0.099625997 0 2.4906499 0 2.4906499 0 0 2.4906499 0 -0.39850399 -0.14943901 0 0 0 2.4906499" style="font-size:9.9626px;font-family:NewTXMI;writing-mode:lr-tb;fill:#000;">suchthattheamplitudeofthederivativeisdirectlylinkedtotheinverselengthscales.</tspan><tspan x="-161.1" y="34.3" dx="0 0 0 0 -0.249065 -0.249065 0 0 0 2.98878 0 2.98878 0 0 2.9788175 0 0 0 2.98878 0 2.98878 0 0 0 0 0 0 0 0 0 0 0 0 2.98878 0 0 0 0 0 0 0 0 0 0 2.9788175 0 0 0 0 0 0 0 0 0 0 2.98878 0 2.98878 0 0 2.98878 0 0 0 0 0 0 0 0 -0.249065 -0.14943901 2.98878 0 0 2.9788175 0 0 0 0 0 2.98878" style="font-size:9.9626px;font-family:NewTXMI;writing-mode:lr-tb;fill:#000;">Motivatedbythelossofinterpretablelengthscaleparameters,weseealternativeDGPmodelsthat</tspan><tspan x="-173.1" y="46.3" dx="0 0 0 0 0 -0.249065 3.7459376 0 0 0 0 0 0 0 3.735975 0 0 0 0 0 0 0 0 0 0 3.7459376 0 0 3.735975 0 0 0 0 0 0 3.7459376 0 0 0 3.735975 -0.099625997 0 0 3.7459376 0 3.735975 0 0 0 0 0 0 3.7459376 0 0 3.735975 0 0 0 0 0 0 3.7459376 0 0 0 0 3.7459376 -0.099625997 0 0 0 0 3.735975" style="font-size:9.9626px;font-family:NewTXMI;writing-mode:lr-tb;fill:#000;">eschewfunctioncompositionandinsteadfindwaystocomposeGPsthroughtheirkernelfunction,</tspan><tspan x="-173.1" y="58.2" dx="0 0 0 0 3.287658 0 3.287658 0 0 3.287658 0 0 3.2776954 0 3.287658 0 0 0 0 0 0 0 0 0 0 3.287658 0 0 0 0 0 0 3.287658 -0.099625997 0 0 0 0 0 3.287658" style="font-size:9.9626px;font-family:NewTXMI;writing-mode:lr-tb;fill:#000;">suchastheuseoflengthscalemixturekernelsby</tspan></text>
    <text transform="matrix(1.33 0 0 1.33 329 788)"><tspan x="0" y="0" dx="0 -0.14943901 0 0 0 0 0 0 3.287658 0 0 3.287658" style="font-size:9.9626px;font-family:NimbusRomNo9L-Regu;writing-mode:lr-tb;fill:#417b7b;">PaciorekandSchervish</tspan></text>
    <text transform="matrix(1.33 0 0 1.33 460 788)"><tspan x="0" y="0" style="font-size:9.9626px;font-family:NimbusRomNo9L-Regu;writing-mode:lr-tb;fill:#000;">[</tspan></text>
    <text transform="matrix(1.33 0 0 1.33 465 788)"><tspan x="0" y="0" style="font-size:9.9626px;font-family:NimbusRomNo9L-Regu;writing-mode:lr-tb;fill:#417b7b;">2003</tspan></text>
    <text transform="matrix(1.33 0 0 1.33 491 788)"><tspan x="0" y="0" dx="0 3.287658" style="font-size:9.9626px;font-family:NimbusRomNo9L-Regu;writing-mode:lr-tb;fill:#000;">]and</tspan></text>
    <text transform="matrix(1.33 0 0 1.33 524 788)"><tspan x="0" y="0" dx="0 0 0 0 0 0 0 0 0 3.287658" style="font-size:9.9626px;font-family:NimbusRomNo9L-Regu;writing-mode:lr-tb;fill:#417b7b;">Salimbeniand</tspan><tspan x="-350.1" y="12" style="font-size:9.9626px;font-family:NimbusRomNo9L-Regu;writing-mode:lr-tb;fill:#417b7b;">Deisenroth</tspan></text>
    <text transform="matrix(1.33 0 0 1.33 118 804)"><tspan x="0" y="0" style="font-size:9.9626px;font-family:NimbusRomNo9L-Regu;writing-mode:lr-tb;fill:#000;">[</tspan></text>
    <text transform="matrix(1.33 0 0 1.33 123 804)"><tspan x="0" y="0" style="font-size:9.9626px;font-family:NimbusRomNo9L-Regu;writing-mode:lr-tb;fill:#417b7b;">2017</tspan></text>
    <text transform="matrix(1.33 0 0 1.33 149 804)"><tspan x="0" y="0" dx="0 2.5803134 0 0 0 0 0 0 2.590276 0 2.5803134 0 0 0 0 0 0 2.5803134 0 0 0 0 0 2.5803134 0 0 0 0 0 0 0 0 0 0 0 2.5803134 0 2.590276 -0.099625997 0 0 0 0 0 2.5803134" style="font-size:9.9626px;font-family:NimbusRomNo9L-Regu;writing-mode:lr-tb;fill:#000;">](DNSGP)orlocallylineardeformationsofkernels[</tspan></text>
    <text transform="matrix(1.33 0 0 1.33 435 804)"><tspan x="0" y="0" dx="0 0 2.5803134 0 0 0 0 2.5803134 0 2.590276" style="font-size:9.9626px;font-family:NimbusRomNo9L-Regu;writing-mode:lr-tb;fill:#417b7b;">deSouzaetal.</tspan></text>
    <text transform="matrix(1.33 0 0 1.33 513 804)"><tspan x="0" y="0" style="font-size:9.9626px;font-family:NimbusRomNo9L-Regu;writing-mode:lr-tb;fill:#000;">,</tspan></text>
    <text transform="matrix(1.33 0 0 1.33 520 804)"><tspan x="0" y="0" style="font-size:9.9626px;font-family:NimbusRomNo9L-Regu;writing-mode:lr-tb;fill:#417b7b;">2023</tspan></text>
    <text transform="matrix(1.33 0 0 1.33 546 804)"><tspan x="0" y="0" dx="0 2.5803134" style="font-size:9.9626px;font-family:NimbusRomNo9L-Regu;writing-mode:lr-tb;fill:#000;">](TDGP).</tspan><tspan x="-367.2" y="12" dx="0 -0.79700798 3.7160499 0 0 0 3.7160499 0 0 0 0 3.7260125 0 3.7160499 0 0 0 3.7160499 0 0 0 0 0 0 3.7160499 0 3.7260125 0 0 0 0 3.7160499 0 0 0 0 0 0 0 0 0 0 0 0 0 0 0 0 3.7160499 0 0 0 0 3.7160499 0 0 0 0 3.7160499 0 0 0 0 0 0 0 0 0 3.7260125 0 0 -0.249065 0 0 3.7160499 0 0 0 3.7160499" style="font-size:9.9626px;font-family:NimbusRomNo9L-Regu;writing-mode:lr-tb;fill:#000;">Wewillrefertobothmethodsasbeinglengthscale-basedDGPs.Theseapproachesdifferfromthe</tspan></text>
    <path d="m234 614-1-1-2-3 2-2h1-3 1l-1 1-1 1v-5h-3v1h1v7l-1 1h4-1v-3l1 2h1l-1 1h3ZM239 604c-2 2-4 4-4 6 0 3 2 5 4 7v-1c-2-1-2-3-2-6s0-4 2-5v-1ZM246 612l-1 1 1-2v-3h-1v1l-1-1c-2 0-4 2-4 4l2 2 2-2v2c1 0 2 0 2-2Zm-2-3-1 3-1 1v-1l1-3 1-1v1ZM250 614l-1-1h-1l1 1h1l-1 2 1-2ZM260 609l-2-1-2 1 2-4h-3l1 1-1 2-1 4v1l1 1c3 0 5-2 5-5Zm-2 1-1 2-1 2-1-1a16 16 0 0 1 1-3l1-1 1 1ZM261 604v1c2 1 3 2 3 5s-1 5-3 6l1 1c1-2 3-4 3-7 0-2-2-4-4-6ZM277 610v-1h-7v1h7Zm0 2v-1h-7v1h7ZM289 608h-5l-2 2 1-1h1l-1 3-1 2 2-2 1-3h1l-1 3v1l1 1h1v-1l-1-1 1-3h1l1-1ZM294 616l-1-1-2-2 2-1h-2 1l-2 1v-4l-1 1h1v5l-1 1h2l-1-1v-2l2 2v1h2ZM305 604l-3 6c0 3 1 5 3 7v-1c-2-1-2-3-2-6s0-4 2-5v-1ZM313 612l-1 1h-1l1-2 1-3h-2v1l-1-1c-2 0-4 2-4 4l2 2 2-2v1l1 1 2-2Zm-2-3-1 3-1 1-1-1 1-3 1-1 1 1ZM324 611v-1h-6v1h6ZM335 609l-2-1-2 1 2-4h-3l1 1-1 2-1 4v1l1 1c3 0 5-2 5-5Zm-2 1-1 2-1 2-1-1a16 16 0 0 1 1-3l1-1 1 1ZM336 604v1c2 1 3 2 3 5s-1 5-3 6l1 1c1-2 3-4 3-7 0-2-2-4-4-6ZM346 606v-1h-4v1h2v4h1v-4h1ZM356 614l-3-9h-1l-3 9h7Zm-2-1h-5l3-5 2 5ZM363 606h-5 5ZM367 608v-6h-1l-1 1h1v5h-1 2ZM374 604c-2 2-4 4-4 6 0 3 2 5 4 7v-1c-2-1-2-3-2-6s0-4 2-5v-1ZM382 612h-1l-1 1 1-2 1-3h-2v1l-1-1c-2 0-4 2-4 4l2 2 2-2v1l1 1 2-2Zm-2-3-1 3-2 1v-1l1-3 1-1 1 1ZM393 611v-1h-7v1h7ZM403 609l-1-1-2 1 1-4h-2v3l-1 4-1 1 2 1c2 0 4-2 4-5Zm-1 1-1 2-2 2v-1a16 16 0 0 1 1-3l1-1 1 1ZM405 604v1c2 1 2 2 2 5s0 5-2 6v1c2-2 3-4 3-7l-3-6ZM418 614l-1-1v1h1l-1 2 1-2Zm0 0" style="fill:#000;;stroke-width:1.333" transform="translate(6 -4)"/>
    <path d="m270 697-1-1-2 1v-1h-2l1 1-1 3-1 3-1 1h3-1l1-2h1c1 0 3-2 3-5Zm-1 0-1 3-2 1 1-3 1-2 1 1ZM286 687l-2-4-2 2v1l1-1 1-1 1 2v2l-1-1c-3 0-4 2-4 4l2 2c2 0 4-3 4-6Zm-1 1c0 1-1 4-3 4l-1-1 2-4 2 1ZM292 684h-3l-1 3h-1 1v4l-1 1v1h4v-1l-2-1v-4h2-2v-2l1-1h1l1 1v-1ZM297 683c-2 1-4 3-4 6s2 5 4 6c-2-1-2-3-2-6s0-4 2-6ZM304 691h-1l-1 1v-1l-1-2h1l1-1 1-1-1-1-2 2v-2l-2 1 1 1v3l-1 1v-1h-1l-1 1 1 1 2-2 2 2 2-2ZM306 683l2 6-2 6c2-1 3-3 3-6s-1-5-3-6Zm0 0" style="fill:#000;;stroke-width:1.333" transform="translate(0 3)"/>
    <path d="M279 698h31" style="fill:none;stroke:#000;stroke-width:.744;stroke-linecap:butt;stroke-linejoin:miter;stroke-miterlimit:10;stroke-dasharray:none;stroke-opacity:1" transform="translate(0 3)"/>
    <path d="M294 705c0-2-1-3-2-3l-2 1v1h1v-1l1-1 1 2v2l-2-1c-2 0-3 3-3 4s0 2 2 2 4-2 4-6Zm-2 1c0 1 0 5-2 5l-1-2c0-1 0-4 2-4l1 1ZM301 709h-1v1l-1-1v-2l1-1h1v-1l-2 1-1-1h-2l1 1v3l-1 1-1-1v2l2-2 2 2 2-2ZM329 697v-1h-7v1h7Zm0 3v-1h-7v1h7ZM345 693h-1l-2 7-4-7h-1v1c0 1-2 8-4 8h1l2-1 1-6 2 2 2 5 1-1c0-2 1-7 3-8ZM358 697c0-3-1-5-3-5l-2 2-1 3c0 3 1 5 3 5s3-2 3-5Zm-2 2v2h-1l-1-2v-3l1-3 1 3v3ZM361 702l-1-2-1 1 1 1-1 1 2-1ZM372 702l-4-9-4 9h8Zm-2-1h-5l2-5 3 5ZM378 694v-1h-5v1h5ZM383 696l-1-1v-5h-2v1l1-1v6h-1 3ZM393 702l-1-2v2h1l-1 1 1-1Zm0 0" style="fill:#000;;stroke-width:1.333" transform="translate(0 3)"/>
    <path d="M40 836h80" style="fill:none;stroke:#000;stroke-width:.664;stroke-linecap:butt;stroke-linejoin:miter;stroke-miterlimit:10;stroke-dasharray:none;stroke-opacity:1" transform="translate(18 -2)"/>
    <g >
        <path d="M2-5H1l1 1v4H1h2L2-1v-4Zm3 4L4 0v3h2L5 2v-3zm0-2L4-2l1-1zm2 5L6 3h1V2zm4 0H9V1h2V0l-1-1-1 1-1 1 1 2 2-1zM9 0h1zm3 2v1h1l-1-1zM21-1h-3l-2 1h2l-1 2-1 1h1l1-1V0h1v3h1l-1-1V1l1-1h1zM24 4h-1l-1-1V2h2-2 1l-1 1V0h-1v4h1V3l1 1h-1zM27-3l-2 4 2 3-1-3 1-4zM32 1l-2 2V2l1-2 1 1zm1-3h-2v2s-2 0-2 2l1 1c2 0 3-1 3-2 0-2-2-2-2-3h2zM34-3l1 4-1 3 2-3-2-4zM44 0h-4zm0 2V1h-4v1zM50 2h-3V1h3l-1-1-1-1-1 2 1 2 2-1zm-1-2h-2 2zm4 3V2l-1-1V0l1-1h-1v1h-1v-1h-1v1l1 1-1 1v1h1V1l1 1v1zm4-2-1-2-1 1v-1l-1 1v5h2V4h-1V3h1l1-2zm0 0-1 2-1-1V0h1l1 1zM66 1h-4ZM70 0v-4h-1v4zm0 0" style="fill:#000;" transform="matrix(1.33 0 0 1.33 69 846)"/>
    </g>
    <path d="M142 849h4" style="fill:none;stroke:#000;stroke-width:.595;stroke-linecap:butt;stroke-linejoin:miter;stroke-miterlimit:10;stroke-dasharray:none;stroke-opacity:1" transform="translate(18 -2)"/>
    <g >
        <path d="M3-1 2 0H1l1-2 1-1-2-1-1 1 1-1 1 1-1 2-1 1h3ZM8-5 7-3 6-4c0-2 2-2 2-2v1zm1-3H8L7-7l1 1S5-6 5-4l2 1 2-2-2-2 1-1 1 1v-1zm0 0" style="fill:#000;" transform="matrix(1.33 0 0 1.33 160 854)"/>
    </g>
</svg>