<svg xmlns="http://www.w3.org/2000/svg" width="816" height="1056"><path d="M144 111h528v-5H144Z"/><text x="243" y="141" stroke-width="1.2" font-size="14.8" style="white-space:pre" transform="matrix(.92 0 0 1.08 45 0)"><tspan x="243" y="141" font-family="serif" font-size="21.2" font-weight="700">Thin and Deep Gaussian Processes</tspan></text><path fill="none" stroke="#000" stroke-miterlimit="10" stroke-width="1.3" d="M144 177h528"/><text style="white-space:pre" transform="matrix(1.33 0 0 1.33 190 225)"><tspan x="0 7 12 18 20 25 30 37 42 47 53 57 60 68 73 80 86 91 96 101" y="0" font-family="serif" font-size="10" font-weight="400">DanielAugustodeSouza</tspan><tspan x="106" y="-4" font-family="serif" font-size="7" font-weight="400">∗</tspan><tspan x="-1 6 11 13 18 22 26 30 32 35 43 49 54 57 60 64 69 76 82 87 92 97 102" y="11" font-family="serif" font-size="10" font-weight="400">UniversityCollegeLondon</tspan><tspan x="146 153 156 161 165 170 176 182 186 193 200 203 208 211 214 217" y="0" font-family="serif" font-size="10" font-weight="400">AlexanderNikitin</tspan><tspan x="151 159 163 166 168 176 183 188 191 195 200 203 207 210 213" y="11" font-family="serif" font-size="10" font-weight="400">AaltoUniversity</tspan><tspan x="277 283 292 297 302 307" y="0" font-family="serif" font-size="10" font-weight="400">STJohn</tspan><tspan x="262 269 274 276 279 287 294 299 301 306 310 314 318 320 323" y="11" font-family="serif" font-size="10" font-weight="400">AaltoUniversity</tspan><tspan x="6 15 20 25 31 36 43 50 55 59" y="39" font-family="serif" font-size="10" font-weight="400">MagnusRoss</tspan><tspan x="-16 -9 -4 -2 3 7 11 15 17 20 28 33 38 47 52 57 61 66 71 74 77 82" y="50" font-family="serif" font-size="10" font-weight="400">UniversityofManchester</tspan><tspan x="116 126 131 136 141 144 148 151 158 165 170 178 180 185 190 194 199" y="39" font-family="serif" font-size="10" font-weight="400">MauricioA.Álvarez</tspan><tspan x="109 116 121 124 129 133 136 140 143 146 153 158 164 173 177 182 187 192 196 200 203 207" y="50" font-family="serif" font-size="10" font-weight="400">UniversityofManchester</tspan><tspan x="241 250 255 259 266 272 276 280 284 291 298 303 305 309 314 319 324 328 332" y="39" font-family="serif" font-size="10" font-weight="400">MarcPeterDeisenroth</tspan><tspan x="235 242 247 249 254 259 262 266 269 271 279 285 290 293 296 300 305 312 318 323 328 333 338" y="50" font-family="serif" font-size="10" font-weight="400">UniversityCollegeLondon</tspan><tspan x="-1 4 9 14 21 26 31 36 41 49 54 62 67" y="78" font-family="serif" font-size="10" font-weight="400">JoãoP.P.Gomes</tspan><tspan x="-21 -15 -11 -6 -1 2 6 12 19 24 26 31 36 39 43 46 48 56 61 67 73 78 82 85" y="89" font-family="serif" font-size="10" font-weight="400">FederalUniversityofCeará</tspan><tspan x="130 137 140 144 149 157 166 171 175 180 186 188 192" y="78" font-family="serif" font-size="10" font-weight="400">DiegoMesquita</tspan><tspan x="110 117 121 124 129 132 135 142 148 153 156 161 165 172 177 182 187 192 197 201 204 207 212" y="89" font-family="serif" font-size="10" font-weight="400">GetúlioVargasFoundation</tspan><tspan x="246 253 257 261 266 273 280 283 288 293 298 300 308 318 323 326 329 334" y="78" font-family="serif" font-size="10" font-weight="400">CésarLincolnMattos</tspan><tspan x="237 242 247 252 256 260 264 269 276 281 284 289 293 296 300 303 306 313 318 324 331 335 340 343" y="89" font-family="serif" font-size="10" font-weight="400">FederalUniversityofCeará</tspan><tspan x="141 150 156 161 165 170 176 182" y="130" font-family="serif" font-size="12" font-weight="400">Abstract</tspan><tspan x="1 8 13 18 22 26 28 33 40 45 49 54 58 62 66 70 75 81 84 92 97 101 107 111 116 123 128 132 136 141 144 149 156 163 168 171 174 179 184 186 191 194 198 206 210 215 220 224 229 233 238 245 248 255 260 265 270 274 278 280 285 288 292 295 303 308 313 317 322" y="152" font-family="serif" font-size="10" font-weight="400">Gaussianprocesses(GPs)canprovideaprincipledapproachtouncertaintyquan-</tspan><tspan x="1 4 7" y="163" font-family="serif" font-size="10" font-weight="400">tifi</tspan><tspan x="12 17 21 24 27 32 40 47 50 53 61 65 70 73 78 82 85 89 93 96 101 103 108 111 116 119 124 130 135 139 142 147 152 158 163 168 173 177 180 185 190 193 198 205 210 212 217 220 224 230 234 239 243 251 256 263 266 271 278 281 285 290 295 298 303 307 311 316 319 323" y="163" font-family="serif" font-size="10" font-weight="400">cationwitheasy-to-interpretkernelhyperparameters,suchasthelengthscale,</tspan><tspan x="1 8 13 16 21 28 33 38 43 45 49 54 56 63 66 71 78 82 87 91 94 98 101 106 108 111 116 124 129 131 135 138 143 148 152 159 164 170 173 178 183 188 191 193 198 206 211 215 218 223 227 231 237 244 249 256 261 265 270 273 278 282 286 289 293 298 301 303 308 316 321" y="174" font-family="serif" font-size="10" font-weight="400">whichcontrolsthecorrelationdistanceoffunctionvalues.However,selectingan</tspan><tspan x="1 6 11 16 19 24 29 32 35 39 42 50 54 59 62 67 72 77 82 86 94 99 106 111 116 120 123 126 130 135 140 143 148 153 160 167 171 176 184 191 197 203 208 212 217 220 228 236 240 245 250 255 260 265 270 273 278 282 288 292 297 302 305 310 315 319 322" y="185" font-family="serif" font-size="10" font-weight="400">appropriatekernelcanbechallenging.DeepGPsavoidmanualkernelengineer-</tspan><tspan x="1 4 9 16 21 28 32 37 42 46 51 54 58 61 66 70 73 80 85 89 93 97 105 109 112 117 120 123 127 130 135 142 147 151 155 160 164 167 173 180 183 186 193 200 208 211 215 220 225 228 232 237 241 244 246 251 258 261 266 273 276 281 286 296 298 306 308 313 317 321" y="196" font-family="serif" font-size="10" font-weight="400">ingbysuccessivelyparameterizingkernelswithGPlayers,allowingthemtolearn</tspan><tspan x="1 4 9 16 19 24 27 35 39 44 48 51 56 61 65 71 75 83 88 93 98 103 105 110 115 122 127 134 136 141 149 152 157 162 167 169 176 179 184 188 194 199 204 209 211 216 219 227 229 234 242 247 252 255 260 265 270 275 280 283 287 294 300 305 307 310 315 322" y="207" font-family="serif" font-size="10" font-weight="400">low-dimensionalembeddingsoftheinputsthatexplaintheoutputdata.Follow-</tspan><tspan x="1 4 9 17 20 25 33 37 40 45 50 53 55 60 64 67 72 75 83 88 95 100 104 108 117 122 126 131 134 139 145 150 154 157 164 169 173 177 181 187 190 195 203 211 216 219 226 230 235 243 250 255 264 269 273 277 286 293 299 306 313 317 321" y="218" font-family="serif" font-size="10" font-weight="400">ingthearchitectureofdeepneuralnetworks,themostcommondeepGPswarp</tspan><tspan x="1 4 9 16 19 24 29 34 39 43 48 53 57 64 67 71 76 81 84 87 92 97 100 103 108 113 117 123 128 133 138 141 146 150 157 161 164 169 172 177 184 187 192 195 199 203 208 211 215 218 222 227 230 233 236 239 246 251 257 261 266 270 273 276 281 291 298 303 307 313 321" y="229" font-family="serif" font-size="10" font-weight="400">theinputspacelayer-by-layerbutlosealltheinterpretabilityofshallowGPs.An</tspan><tspan x="1 6 8 11 16 19 24 28 31 34 38 46 51 56 61 64 67 70 75 80 83 85 90 99 101 109 111 120 123 128 133 137 142 146 149 152 157 161 164 172 177 182 185 189 197 202 204 209 212 215 219 227 230 235 242 245 250 255 260 262 267 271 276 280 283 290 295 302 310 315 319 322" y="240" font-family="serif" font-size="10" font-weight="400">alternativeconstructionistosuccessivelyparameterizethelengthscaleofaker-</tspan><tspan x="1 6 11 13 19 21 29 34 37 42 47 50 55 63 65 70 77 80 85 88 92 96 101 104 108 111 115 120 123 126 129 132 139 144 149 154 159 162 165 168 175 180 182 187 190 197 202 205 210 213 218 225 229 236 241 248 251 256 263 268 273 276 279 284 291 296 302 305 309 314 317 322" y="251" font-family="serif" font-size="10" font-weight="400">nel,improvingtheinterpretabilitybutultimatelygivingawaythenotionoflearn-</tspan><tspan x="1 4 9 17 20 24 31 36 39 42 47 50 58 62 67 71 74 79 84 88 94 98 106 111 115 120 125 128 133 138 142 149 156 161 164 169 172 175 180 185 189 192 197 199 204 209 214 219 222 230 237 242 245 250 255 260 266 271 274 281 285 290 294 298 303 308 311 313 318 321" y="261" font-family="serif" font-size="10" font-weight="400">inglower-dimensionalembeddings.Unfortunately,bothmethodsaresusceptible</tspan><tspan x="1 4 12 17 21 25 27 30 35 40 42 47 53 58 62 65 70 75 78 83 88 91 95 102 109 114 117 121 129 137 141 149 154 157 162 167 171 178" y="272" font-family="serif" font-size="10" font-weight="400">toparticularpathologieswhichmayhinderfi</tspan><tspan x="183 186 189 191 196 204 209 214 222 224 227 235 238 243 246 251 255 258 264 267 272 275 279 283 288 291 295 298 303 308 310 313 316 319 323" y="272" font-family="serif" font-size="10" font-weight="400">ttingandlimittheirinterpretability.</tspan><tspan x="1 7 12 15 21 28 33 36 44 49 52 57 62 67 71 75 81 88 93 97 102 107 112 115 120 125 128 133 138 141 144 150 155 161 166 171 173 180 185 189 193 198 201 206 211 217 221 226 231 234 239 244 248 253 258 261 267 273 278 281 288 292 297 304 312 316 321" y="283" font-family="serif" font-size="10" font-weight="400">Thisworkproposesanovelsynthesisofbothpreviousapproaches:ThinandDeep</tspan><tspan x="1 8 17 20 26 33 40 46 49 55 61 65 70 77 83 91 98 106 109 113 118 123 129 134 138" y="294" font-family="serif" font-size="10" font-weight="400">GP(TDGP).EachTDGPlayerdefi</tspan><tspan x="144 149 153 160 162 167 172 176 179 182 189 192 195 200 204 209 215 218 221 225 230 234 238 243 246 254 258 261 264 269 274 280 285 291 294 299 306 311 314 317 322" y="294" font-family="serif" font-size="10" font-weight="400">neslocallylineartransformationsoftheorig-</tspan><tspan x="1 4 9 13 19 22 27 32 37 42 47 51 54 61 69 73 76 81 84 88 91 96 99 104 111 114 119 126 131 136 141 145 150 155 160 165 171 174 178 181 185 190 196 200 208 213 217 222 227 230 235 240 247 254 259 262 264 271 276 279 282 290 293 298 301 305 308 313 316 321" y="305" font-family="serif" font-size="10" font-weight="400">inalinputdatamaintainingtheconceptoflatentembeddingswhilealsoretaining</tspan><tspan x="1 4 9 16 18 23 26 31 34 39 42 47 49 54 57 59 64 72 77 82 85 89 94 99 102 107 111 115 120 123 127 133 138 144 150 155 160 163 168 172 175 181 189 194 198 202 207 212 216 219 224 229 234 237 239 244 251 254 259 265 270 274 276 281 287 291 296 299 304 306 309 314 319 323" y="316" font-family="serif" font-size="10" font-weight="400">theinterpretationoflengthscalesofakernel.Moreover,unlikethepriorsolutions,</tspan><tspan x="1 7 15 22 30 32 37 42 47 52 56 62 67 72 77 80 85 90 93 98 103 105 110 115 118 123 127 132 140 144 149 152 155 160 163 168 174 177 182 186 191 196 201 209 211 216 219 224 228 231 236 239 244 251 254 259 266 270 273 277 282 285 292 297 302 306 308 313 318 323" y="327" font-family="serif" font-size="10" font-weight="400">TDGPinducesnon-pathologicalmanifoldsthatadmitlearninglower-dimensional</tspan><tspan x="1 5 9 14 17 22 26 30 35 38 42 45 48 53 58 62 68 76 84 88 93 97 107 114 117 120 128 130 135 140 145 148 153 155 158 163 167 172 177 182 190 194 199 204 208 212 214 222 227 231 234 239 244 248 252 256 261 264 266 273 276 281 285 291 293 299 306 313 320" y="338" font-family="serif" font-size="10" font-weight="400">representations.Weshowwiththeoreticalandexperimentalresultsthati)TDGP</tspan><tspan x="1 4 8 15 20 25 28 30 35 44 49 52 56 61 64 69 74 82 90 95 100 104 107 111 118 121 125 128 130 135 139 143 152 155 164 168 173 177 182 185" y="349" font-family="serif" font-size="10" font-weight="400">is,unlikepreviousmodels,tailoredtospecifi</tspan><tspan x="190 195 199 202 205 214 219 221 225 230 235 239 244 251 254 259 266 270 273 277 282 285 292 297 302 306 308 313 318 323" y="349" font-family="serif" font-size="10" font-weight="400">callydiscoverlower-dimensional</tspan><tspan x="1 9 13 18 21 24 29 32 37 44 47 55 58 63 70 73 78 83 88 93 98 103 106 110 116 118 121 127 134 141 148 157 161 166 171 175 180 184 191 198 203 206 211 219 224 228 236 239 244 248 251 256 260 264 267 272 280 283 288 295 300 305 313 318 322" y="360" font-family="serif" font-size="10" font-weight="400">manifoldsintheinputdata,ii)TDGPbehaveswellwhenincreasingthenumber</tspan><tspan x="1 6 12 15 19 24 29 32 36 41 45 50 58 60 63 66 72 78 85 92 100 105 110 113 116 121 125 132 139 146 150 153 158 161 169 173 175 180 185 190 194 197 205 210 214 219 224 229 236 241 244 252 257 261 264 268 272 277 279 283" y="371" font-family="serif" font-size="10" font-weight="400">oflayers,andiii)TDGPperformswellinstandardbenchmarkdatasets.</tspan><tspan x="-35 -17 -12 -5 -1 4 10 16 23 28 32 36 42" y="402" font-family="serif" font-size="12" font-weight="400">1Introduction</tspan><tspan x="-35 -27 -23 -18 -14 -10 -8 -3 5 10 14 19 23 27 31 35 40 47 50 58 63 67 74 78 81 89 94 98 103 108 112 117 120 123 125 129 132 135 143 150 155 160 165 168 175 182 187 192 196 204 209 214 219 224 228 231 236 244 248 251 254 257 265 270 274 277 282 285 293 298 303 311 314 319 322 326 329 334 338 342 345 349 354 357" y="424" font-family="serif" font-size="10" font-weight="400">Gaussianprocesses(GPs)areprobabilisticmodelswhosenonparametricnatureandinterpretable</tspan><tspan x="-35 -30 -25 -20 -15 -12 -7 -3 1 5 13 17 20 25 28 35 43 47 52 60 63 68 72 83 88 92 97 102 106 109 112 117 125 128 136 144 148 153 162 166 171 176 179 181 186 190 193 196 201 206 213 220 225 230 233 241 246 251 255 260 263 266 270 273 278 281 289 294 299 303 308 311 314" y="435" font-family="serif" font-size="10" font-weight="400">hyperparametersmakethemappealinginmanyapplicationswhereuncertaintyquantifi</tspan><tspan x="319 324 328 331 334 339 347 351 356" y="435" font-family="serif" font-size="10" font-weight="400">cationand</tspan><tspan x="-35 -30 -25 -22 -15 -10 -7" y="446" font-family="serif" font-size="10" font-weight="400">dataeffi</tspan><tspan x="-2 3 6 10 15 19 28 35 40 42 45 50 53 59 62 67 72 80 85 92 98 103 108 112 116 119 123 132 137 142 144 147 155 158 162 167 169 172 177 185 189 194 199 202 208 212 217 221 224 227 232 235 239 247 252 257 260 265 271 278 283 288 293 296 298 303 312 315 320 323 329 333 338 343 348 350 353 357" y="446" font-family="serif" font-size="10" font-weight="400">ciencymatter,suchasBayesianoptimization[11],spatiotemporalmodeling[6],robotics</tspan><tspan x="-35 -30 -25 -18 -13 -8 -3 0 3 8 13 17 22 25 31 37 42 49 54 58 66 74 79 84 88 91 94 98 106 111 116 121 123 128 135 138 143 149 156 163 171 176 180 183 188 193 196 203 206 208 215 219 224 229 233 237 239 244 249 253 260 265 271 276 280 284 289 293 299 302 307 312 316 319 322 327 332 337 344 349 352 356" y="457" font-family="serif" font-size="10" font-weight="400">andcontrol[5].ThekeymodelingchoiceforaGPpriorisitscovarianceorkernelfunction,which</tspan><tspan x="-35 -30 -25 -22 -18 -15 -7 -4 1 5 12 15 20 27 31 34 39 42 49 54 60 64 69 73 78 81 83 88 93 100 103 108 112 116 121 125 129 133 137 142 145 149 155 163 167 175 179 184 188 191 196 201 206 214 216 224" y="468" font-family="serif" font-size="10" font-weight="400">determinestheclassoffunctionsitrepresents.However,duetofi</tspan><tspan x="230 235 237 240 247 252 257 260 267 271 276 284 291" y="468" font-family="serif" font-size="10" font-weight="400">nitedataandafi</tspan><tspan x="297 302 306 311 314 318 323 326 337 341 346 349 354 359" y="468" font-family="serif" font-size="10" font-weight="400">xed-formkernel</tspan><tspan x="-35 -31 -26 -21 -17 -14 -11 -6 -1 4 6 11 18 25 34 41 46 53 58 63 69 71 76 79 83 87 92 97 103 108 113 115 119 123 128 133 136 140 143 150 154 161 166 170 174 177 180 185 190 195 201 204 208 211 213 218 223 228 231 239 244 248 251 256 261 263 267 272 276 281 286 293 298 304 307 312 319 323 328 336 344 349 354 356" y="479" font-family="serif" font-size="10" font-weight="400">function,theGPmaynotinter-orextrapolateasdesired.Stationarykernels,suchasthecommonly</tspan><tspan x="-35 -30 -26 -21 -14 -10 -5 0 5 8 12 20 24 29 34 39 44 49 54 57 59 64 69 74 79 82 87 91 97 101 106 114 117 122 129 138 142 145 149 153 160 164 168 176 179 181 186 191 195 199 203 208 216 223 226 231 238 242 247 250 254 257 261 266 271 278 283 289 296 300 305 310 314 317 322 327 332 336 341 346 349 354 358" y="490" font-family="serif" font-size="10" font-weight="400">usedsquaredexponentialkernelandtheMatérnfamily,assumetheexistenceofaconstantcharac-</tspan><tspan x="-35 -32 -27 -24 -21 -17 -15 -12 -5 -2 2 7 12 15 20 24 28 33 35 40 45 52 57 60 64 72 79 84 89 93 99 102 107 112 122 127 132 136 141 143 146 151 156 158 165 169 174 179 187 192 197 202 204 207 212 220 225 230 234 238 242 244 249 252 254 259 264 269 272 280 285 289 292 296" y="501" font-family="serif" font-size="10" font-weight="400">teristiclengthscale,whichmakesthemunsuitableformodelingnon-stationarydata.</tspan><tspan x="-35 -29 -22 -17 -12 -7 -4 -1 3 7 12 17 25 30 33 40 45 50 54 58 62 66 70 72 77 84 89 94 97 102 106 109 113 118 125 132 137 141 149 153 158 163 167 170 175 179 185 190 193 197 200 205 208 212 217 220 225 229 234 242 250 257 262 267 272 275 281 284 289 294 298 306 313 318 325 330 336 343 350 356 359" y="517" font-family="serif" font-size="10" font-weight="400">Toconstructmoreexpressivekernels,wecanconsiderhierarchicalGPmodels(deepGPsorDGP).</tspan><tspan x="-35 -29 -24 -16 -8 -3 1 7 12 17 24 32 37 45 50 55 59 68 75 84 88 93 98 102 105 108 113 118 120 123 128 137 139 147 155 158 163 168 172 175 178 183 188 192 199 203 208 216 221 226 229 232 235 238 243 251 256 263 270 279 282 286 291 296 299 306 314 316 319 328 331 334 339 344 349 353 356" y="528" font-family="serif" font-size="10" font-weight="400">ThemostcommondeepGPconstructionisafunctionalcompositionofGPlayerswithstandard</tspan></text><path fill="none" stroke="#000" stroke-miterlimit="10" stroke-width=".5" d="M144 939h191"/></svg>