<svg xmlns="http://www.w3.org/2000/svg" width="816" height="1056">
    <path d="M101 101h648v-5H101z"/>
    <text transform="matrix(1.33333 0 0 1.33333 234 139)" style="-inkscape-font-specification:CMBX12" font-weight="400" font-size="14.3" font-family="CMBX12">
        <tspan x="0 10 17 25 31 40 45 54 67 80 91 99 111 132 144 148 154 169 176 183 192 197 203 209 217 224 238 246 253 260 269 276 281" y="0">LearningGPLVMwitharbitrarykernels</tspan><tspan x="18 27 34 38 47 61 67 76 89 97 106 113 120 127 136 142 150 164 170 177 185 194 200 205 213 220 233 241 247 252 260" y="16">usingtheunscentedtransformation</tspan>
    </text>
    <path d="M101 188h648" fill="none" stroke="#000" stroke-miterlimit="10" stroke-width="1.33333"/>
    <text transform="matrix(1.33333 0 0 1.33333 88 243)" style="-inkscape-font-specification:CMBX10" font-weight="400" font-size="10" font-family="CMBX10">
        <tspan x="0 9 14 21 24 29 36 45 51 57 63 68 72 82 88 97 104 109 116 121" y="0">DanielAugustodeSouza</tspan>
    </text>
    <text transform="matrix(1.33333 0 0 1.33333 257 238)" style="-inkscape-font-specification:CMR7" font-weight="400" font-size="7" font-family="CMR7">
        <tspan x="0" y="0">1</tspan>
    </text>
    <text transform="matrix(1.33333 0 0 1.33333 285 243)" style="-inkscape-font-specification:CMBX10" font-weight="400" font-size="10" font-family="CMBX10">
        <tspan x="0 9 12 17 23 32 43 49 53 59 66 69 73" y="0">DiegoMesquita</tspan>
    </text>
    <text transform="matrix(1.33333 0 0 1.33333 390 238)" style="-inkscape-font-specification:CMR7" font-weight="400" font-size="7" font-family="CMR7">
        <tspan x="0" y="0">2</tspan>
    </text>
    <text transform="matrix(1.33333 0 0 1.33333 434 243)" style="-inkscape-font-specification:CMBX10" font-weight="400" font-size="10" font-family="CMBX10">
        <tspan x="0 8 8 14 18 24 32 39 42 49 54 59 63 73 84 89 94 98 104" y="0">C´esarLincolnMattos</tspan>
    </text>
    <text transform="matrix(1.33333 0 0 1.33333 578 238)" style="-inkscape-font-specification:CMR7" font-weight="400" font-size="7" font-family="CMR7">
        <tspan x="0" y="0">1</tspan>
    </text>
    <text transform="matrix(1.33333 0 0 1.33333 607 243)" style="-inkscape-font-specification:CMBX10" font-weight="400" font-size="10" font-family="CMBX10">
        <tspan x="0 6 12 12 17 27 34 40 46 49 59 68 74 83 88" y="0">Jo˜aoPauloGomes</tspan>
    </text>
    <text transform="matrix(1.33333 0 0 1.33333 731 238)" style="-inkscape-font-specification:CMR7" font-weight="400" font-size="7" font-family="CMR7">
        <tspan x="0" y="0">1</tspan>
    </text>
    <text transform="matrix(1.33333 0 0 1.33333 223 290)" style="-inkscape-font-specification:CMBX12" font-weight="400" font-size="12" font-family="CMBX12">
        <tspan x="0 10 18 23 28 34 40 46" y="0">Abstract</tspan>
    </text>
    <text transform="matrix(1.33333 0 0 1.33333 127 327)" style="-inkscape-font-specification:CMR10" font-weight="400" font-size="10" font-family="CMR10">
        <tspan x="0 8 13 18 22 26 29 34 47 54 58 63 67 72 76 87 93 98 102 107 112 123 130 135 139 142 147 152 155 167 176 181 187 191" y="0">GaussianProcessLatentVariableModel</tspan><tspan x="0 4 12 18 24 31 40 50 52 62 73 78 83 88 91 96 99 109 112 116 121 129 134 141 146 149 160 164 175 180 185 191" y="12">(GPLVM)isafexibleframeworktohan-</tspan><tspan x="0 6 8 18 23 29 33 38 41 45 50 53 63 66 72 77 83 87 96 98 109 117 122 127 131 135 138 143 153 160 164 169 174 178 182 186 190" y="24">dleuncertaininputsinGaussianProcesses</tspan><tspan x="0 4 12 18 22 31 36 41 52 54 60 64 69 73 79 84 88 93 97 106 114 120 129 134 143 147 152 160 166 171 177 181 186 190" y="36">(GPs)andincorporateGPsascomponents</tspan><tspan x="0 5 12 14 19 23 28 33 40 45 49 54 60 65 68 72 77 84 92 97 103 107 110 114 122 130 135 140 145 149 154 159 161 166 170 174 180 184 190" y="48">oflargergraphicalmodels.Nonetheless,the</tspan><tspan x="0 4 8 13 18 24 29 33 44 51 58 63 71 85 90 95 99 101 106 110 113 118 124 129 137 139 145 148 152 156 161 166 171 180 185 191" y="60">standardGPLVMvariationalinferenceap-</tspan><tspan x="0 6 9 14 19 24 34 37 46 49 53 58 63 67 72 77 80 89 94 100 103 113 116 121 130 139 145 150 154 158 162 175 178 183 191" y="72">proachistractableonlyforanarrowfam-</tspan><tspan x="0 3 6 16 21 29 34 38 42 48 52 60 63 69 74 79 83 85 90 96 100 112 119 125 134 143 148 152 161 166 171 177 182 185 190" y="84">ilyofkernelfunctions.Themostpopular</tspan><tspan x="0 3 11 17 19 24 32 37 42 46 51 55 57 62 68 75 80 87 95 102 107 114 127 131 134 138 142 148 156 161 165 171 178 182 187 190" y="96">implementationsofGPLVMcircumventthis</tspan><tspan x="0 3 6 14 17 20 25 29 32 37 47 52 56 59 64 73 79 84 89 95 99 104 107 113 117 125 134 138 142 147 153 158 162 169 176 182 184 189" y="108">limitationusingquadraturemethods,which</tspan><tspan x="0 8 13 21 26 31 35 40 49 55 63 67 72 80 86 91 95 100 104 107 112 117 122 127 133 138 142 146 149 153 159 163 167 175 179 184 189" y="120">maybecomeacomputationalbottleneckeven</tspan><tspan x="0 3 8 16 20 24 27 32 36 39 44 48 51 61 63 68 79 85 88 96 100 106 110 113 118 123 127 137 143 148 156 159 164 168 172 177 183 187 191" y="132">forrelativelylowdimensions.Forinstance,</tspan><tspan x="0 4 9 17 24 27 33 37 40 49 53 61 67 70 74 79 84 93 100 105 111 115 119 122 130 134 138 146 149 153 161 166 171 176 182 186 191" y="144">thewidelyemployedGauss-Hermitequadra-</tspan><tspan x="0 4 9 13 21 26 31 38 43 48 54 59 64 69 74 78 80 85 91 96 101 109 114 117 122 127 130 133 141 146 155 159 164 172 177 183 191" y="155">turehasexponentialcomplexityonthenum-</tspan><tspan x="0 6 10 20 24 33 38 41 50 54 59 63 66 71 77 81 94 98 108 112 118 121 130 137 142 146 151 160 167 176 182 186 191" y="167">berofdimensions.Inthiswork,wepro-</tspan><tspan x="0 6 11 15 23 29 32 35 41 50 53 59 67 73 78 82 87 91 96 100 105 114 118 122 127 132 136 139 144 148 157 162 165 168 173 183 185 191" y="179">poseusingtheunscentedtransformationin-</tspan><tspan x="0 4 8 12 17 23 35 42 47 52 56 61 63 66 74 78 84 86 95 103 108 112 117 123 133 138 142 147 151 155 160 164 173 178 183 191" y="191">stead.Overall,thismethodpresentscom-</tspan><tspan x="0 6 11 14 19 25 28 32 39 41 48 54 59 66 72 76 80 84 89 93 99 105 109 113 116 121 125 133 138 144 148 156 160 166 171 180 185 191" y="203">parable,ifnotbetter,performancethanof-</tspan><tspan x="0 4 9 14 17 21 27 31 34 41 45 50 53 58 62 65 70 76 84 88 97 105 112 117 124 138 143 148 158 161 165 173 178 183 191" y="215">the-shelfsolutionstoGPLVManditscom-</tspan><tspan x="0 6 11 15 20 24 27 32 37 42 48 52 57 66 71 74 78 84 87 90 99 103 107 112 115 119 126 131 137 140 148 151 154 159 164 168 172 175 184 189" y="227">putationalcomplexityscalesonlylinearlyon</tspan><tspan x="0 6 8 17 21 27 30 33 38 44 51 54 63 67 72 77 81 85 90 94 100 104 112 121 126 131 135 142 149 154 158 161 169 177 181 185 191" y="239">dimension.IncontrasttoMonteCarlometh-</tspan><tspan x="0 5 11 15 21 26 31 38 43 49 54 58 63 68 72 81 83 90 96 100 104 109 113 121 124 129 132 136 140 143 150 155 161 169 176 181 185 190" y="251">ods,ourapproachisdeterministicandworks</tspan><tspan x="0 7 11 14 20 27 30 34 42 47 53 58 62 64 68 75 80 87 91 96 104 112 117 121 126 131 137 141 147 151 156 160 169 174 180 184 190" y="263">wellwithquasi-Newtonmethods,suchasthe</tspan><tspan x="0 7 11 16 21 26 31 36 40 46 49 53 57 61 67 71 75 79 86 91 94 100 103 108 112 117 121 126 132 137 142 148 160 164 171 177 185 190" y="275">Broyden-Fletcher-Goldfarb-Shanno(BFGS)</tspan><tspan x="0 5 8 13 18 22 24 28 34 42 51 60 68 71 74 77 82 86 90 94 99 103 111 115 120 129 134 139 145 147 150 155 160 165 168 171 173 177 186 191" y="287">algorithm.Weillustratetheapplicabilityof</tspan><tspan x="0 5 11 18 26 31 35 40 45 54 62 64 68 77 82 87 93 97 101 104 112 117 122 126 133 138 147 153 155 164 168 174 178 180 185 191" y="299">ourmethodwithexperimentsondimension-</tspan><tspan x="0 5 8 11 14 24 28 32 38 43 48 52 54 59 70 74 80 90 98 104 106 110 113 117 121 125 131 134 139 145 149 154 164 170 174 178 184 186 191" y="311">alityreductionandmultistep-aheadpredic-</tspan><tspan x="0 4 7 12 20 28 30 34 43 49 54 59 63 67 71 76 79 84 87 96 102 105 110 116 121 126 131 135 138 143 148" y="323">tionwithuncertaintypropagation.</tspan>
    </text>
    <text transform="matrix(1.33333 0 0 1.33333 101 805)" style="-inkscape-font-specification:CMBX12" font-weight="400" font-size="12" font-family="CMBX12">
        <tspan x="0 20 25 36 45 55 65 75 85 95 105 110 120" y="0">1INTRODUCTION</tspan>
    </text>
    <text transform="matrix(1.33333 0 0 1.33333 101 837)" style="-inkscape-font-specification:CMR10" font-weight="400" font-size="10" font-family="CMR10">
        <tspan x="0 8 13 18 22 26 29 34 47 52 56 61 66 70 74 85 89 97 104 115 123 128 134 138 141 152 157 162 167 179 185 189 193 206 213 216 222 226 229" y="0">Gaussianprocess(GP)modelshavebeenwidely</tspan><tspan x="0 5 11 15 21 25 29 41 44 56 60 65 76 84 89 93 99 102 107 118 121 125 130 134 140 142 148 159 164 168 177 185 190 196 199 202 214 219 229" y="12">adoptedinthemachinelearningcommunityasa</tspan><tspan x="0 7 12 17 21 25 28 33 46 51 56 62 66 71 76 80 93 97 110 115 120 126 131 136 140 145 153 158 162 165 168 180 185 190 194 199 204 206 210 215 220 224 228" y="24">Bayesianapproachtononparametrickernel-based</tspan><tspan x="0 3 7 12 16 22 24 30 38 44 49 57 61 69 73 78 83 86 93 97 100 108 113 116 119 123 126 130 138 143 149 158 161 166 169 172 180 186 190 195 200 205 211 213 216 219 223 227 230" y="36">learningduetotheirsimplicityandfullyprobabilistic</tspan><tspan x="0 6 9 14 19 22 27 30 33 38 44 52 55 63 68 72 80 85 89 93 97 107 112 117 127 137 140 142 145 148 153 161 169 174 179 184 189 193 202 209 214 219 225 230" y="48">predictions(RasmussenandWilliams2006).Thanks</tspan><tspan x="0 4 13 16 20 28 34 38 44 46 52 55 57 60 64 68 76 84 89 94 104 109 114 118 124 129 133 141 147 151 156 165 170 176 181 184 187 191 201 205 211 219 227" y="60">toitsfexibility,manyauthorshaveappliedtheGP</tspan>
    </text>
    <path d="M101 933h77" fill="none" stroke="#000" stroke-width=".533332" stroke-miterlimit="10"/>
    <text transform="matrix(1.33333 0 0 1.33333 101 946)" style="-inkscape-font-specification:CMR6" font-weight="400" font-size="6" font-family="CMR6">
        <tspan x="0" y="0">1</tspan>
    </text>
    <text transform="matrix(1.33333 0 0 1.33333 111 951)" style="-inkscape-font-specification:CMR9" font-weight="400" font-size="9" font-family="CMR9">
        <tspan x="0 7 11 16 21 24 28 36 40 45 52 57 63 70 74 82 87 92 96 100 107 113 117 119 123 128 133 137 143 150 155 158 162 166 170 174 176 181 186 191 199 204 208 213 217 221 226" y="0">DepartmentofComputerScience,UniversidadeFederal</tspan><tspan x="-8 -3 5 12 16 20 24 24" y="10">doCear´a</tspan>
    </text>
    <text transform="matrix(1.33333 0 0 1.33333 101 972)" style="-inkscape-font-specification:CMR6" font-weight="400" font-size="6" font-family="CMR6">
        <tspan x="0" y="0">2</tspan>
    </text>
    <text transform="matrix(1.33333 0 0 1.33333 110 977)" style="-inkscape-font-specification:CMR9" font-weight="400" font-size="9" font-family="CMR9">
        <tspan x="0 7 11 16 21 24 28 36 40 45 51 56 62 69 73 81 86 91 95 99 105 111 115 117 121 126 130 135 140 147 152 154 158 166 172 178 180 185 189 192 196 199 202" y="0">DepartmentofComputerScience,AaltoUniversity</tspan>
    </text>
    <text transform="matrix(1.33333 0 0 1.33333 437 290)" style="-inkscape-font-specification:CMR10" font-weight="400" font-size="10" font-family="CMR10">
        <tspan x="0 3 7 12 20 25 32 37 40 51 54 65 69 74 79 83 88 93 97 106 110 115 120 130 135 145 150 155 161 166 174 177 181 186 194 203 208 214 218 221 223 229" y="0">frameworkincontextssuchasdynamicalmodeling</tspan><tspan x="0 4 11 13 18 21 25 30 35 39 41 46 52 55 59 67 74 77 81 87 92 94 98 103 109 117 122 130 135 138 146 151 156 161 166 174 184 189 192 196 201 210 215 223 228 231" y="12">(Eleftheriadis,Nicholson,etal.2017;Mattosetal.</tspan><tspan x="0 5 10 15 20 24 33 38 43 47 52 57 62 67 72 78 82 86 96 99 107 112 116 121 123 133 138 147 152 155 164 169 174 179 184 193 200 203 207 210 214 220 224 228 231" y="24">2016),autoencoders(Casaleetal.2018;Eleftheri-</tspan><tspan x="0 5 11 13 17 24 31 36 42 47 52 55 59 65 70 77 82 85 91 96 101 106 111 115 121 126 132 141 146 149 154 157 162 166 170 176 179 183 188 194 203 208 214 218 221 223 229" y="36">adis,Rudovic,etal.2017),andhierarchicalmodeling</tspan><tspan x="0 4 11 16 21 26 30 36 40 47 52 55 61 66 71 76 81 87 93 98 101 103 111 117 122 127 133 138 144 153 160 165 167 171 176 181 185 190 194 203 208 213 218 223 227" y="48">(Havasietal.2018;SalimbeniandDeisenroth2017).</tspan><tspan x="0 7 13 21 28 33 37 42 50 55 61 66 71 79 84 89 94 102 111 115 118 123 129 131 137 141 146 152 159 165 170 173 176 182 184 190 199 204 207 212 216 226 228" y="66">Theworksabovehaveasignifcantbuildingblockin</tspan><tspan x="0 4 9 18 26 31 37 46 49 55 64 72 83 89 94 98 102 107 116 122 127 131 134 139 144 147 156 165 170 176 180 187 191 199 206 211 218 227 231" y="78">common:theGPLatentVariableModel(GPLVM),</tspan><tspan x="0 7 13 15 20 32 39 44 54 60 64 69 75 80 83 88 100 105 117 123 128 135 139 144 149 154 165 169 174 179 184 189 199 203 215 220 225 231" y="90">whichwasproposedbyLawrence(2004)tohan-</tspan><tspan x="0 6 8 18 21 26 31 35 40 43 48 59 63 67 72 77 82 86 89 94 104 111 114 117 129 134 140 144 149 152 156 161 164 175 178 184 189 195 199 203 217 224 230" y="102">dlelearningscenarioswithuncertaininputs.The</tspan><tspan x="0 8 15 20 27 41 48 53 61 66 71 75 79 85 90 95 105 112 115 119 129 138 145 150 155 159 163 166 171 181 185 189 194 197 202 205 211 220 225 231" y="114">GPLVMwasextendedwithaBayesiantrainingap-</tspan><tspan x="0 6 9 14 19 24 33 37 44 49 54 58 62 65 70 80 88 94 100 107 116 124 130 139 146 149 153 157 160 165 173 178 183 193 199 204 211 215 220 225 230" y="126">proach(BayesianGPLVM)byTitsiasandLawrence</tspan><tspan x="0 4 9 14 19 24 30 35 41 49 52 57 61 65 72 77 85 93 98 106 109 114 119 124 133 138 143 152 158 163 170 174 178 184 188 195 199 204 209 214 219 226 228" y="138">(2010)andlaterbyDamianouandLawrence(2013)in</tspan><tspan x="0 8 16 22 25 29 31 34 39 44 48 55 59 64 68 71 74 80 88 92 100 104 108 117 125 132 136 140" y="149">amultilayersetting(DeepGPs).</tspan><tspan x="0 7 13 23 27 32 36 39 44 48 51 56 61 66 75 80 85 91 95 100 105 109 120 125 129 134 138 142 147 151 156 167 172 183 190 193 197 201 203 208 218 223 228" y="167">ThevariationalapproachpresentedbyTitsiasand</tspan><tspan x="0 6 11 18 22 26 32 36 46 50 55 60 65 70 78 81 86 95 99 105 114 121 126 131 135 139 142 147 157 165 172 177 185 199 204 208 213 217 221 226 230" y="179">Lawrence(2010)fortheBayesianGPLVMpresents</tspan><tspan x="0 4 8 13 17 21 26 32 34 44 48 53 56 60 66 69 74 77 80 85 91 100 105 110 113 123 126 131 140 150 153 157 169 173 179 184 187 191 196 204 209 217 222 227 231" y="191">tractablecalculationsonlyforafewchoicesofker-</tspan><tspan x="0 6 10 17 20 25 31 35 39 42 47 52 59 63 68 73 82 87 95 98 104 112 116 121 127 129 134 141 146 151 155 158 166 169 174 180 184 188 191 196 205 209 217 224 230" y="203">nelfunction,suchastheradialbasisfunction(RBF)</tspan><tspan x="0 5 9 13 19 23 26 41 49 53 60 65 70 74 78 87 90 100 103 112 118 123 128 135 147 150 156 161 171 175 180 191 198 205 217 222 227 231" y="215">kernel.However,itisknownthattheRBFker-</tspan><tspan x="0 6 10 16 21 25 30 33 38 43 47 54 57 59 68 70 74 79 87 92 97 101 105 110 116 120 123 128 132 135 140 148 153 158 163 168 174 177 179 182 186 194 198 207 212 216 224 229" y="227">nelpresentslimitedextrapolationcapability(MacKay</tspan><tspan x="0 5 10 15 20 24 35 41 46 54 63 68 74 78 83 88 92 101 106 111 116 125 129 133 136 140 150 154 164 169 175 180 184 188 192 201 205 210 215 224 227 231" y="239">1998).Someauthorshavetriedtoaddressthatis-</tspan><tspan x="0 4 9 14 23 30 36 44 51 56 60 69 74 83 91 96 101 106 111 116 122 131 136 144 149 151 158 162 167 172 177 182 190 195 200 210 216 219 223 228" y="251">sue.TheworkbyDuvenaudetal.(2013)andLloyd</tspan><tspan x="0 4 11 16 18 24 27 32 37 42 47 54 59 65 69 73 78 82 89 96 101 106 114 120 125 129 131 135 138 143 149 154 159 164 169 175 179 184 189 193 201 205 212 217 223 226 228" y="263">etal.(2014)pursuesacompositionalapproachtobuild</tspan><tspan x="0 8 13 17 27 31 36 42 46 50 54 58 61 66 75 80 85 89 94 99 101 110 113 117 122 136 140 142 151 156 159 163 172 177 183 187 191 204 214 217 220 223 228" y="275">moreexpressivekernelsfromsimplerones.Wilson</tspan><tspan x="0 5 11 19 26 32 37 45 52 55 60 65 70 75 82 87 91 96 102 107 111 118 122 127 135 138 144 149 153 157 161 166 171 180 182 188 191 197 201 208 213 217 221 227 231" y="287">andAdams(2013)proposethespectralmixturekernel</tspan><tspan x="0 3 8 16 19 22 26 32 36 41 47 52 57 60 67 72 78 83 89 93 97 106 111 115 117 125 130 135 139 143 147 151 159 165 168 172 176 181 186 190 194 202 207 213 221 225 231" y="299">family,capableofautomaticpatterndiscoveryandex-</tspan><tspan x="0 4 8 13 19 24 26 31 35 38 43 52 58 62 67 72 78 87 91 97 105 109 113 118 120 126 129 134 143 149 154 157 162 171 178 181 185 190 196 200 206 208 213 218 226 230" y="311">trapolatingbeyondthetrainingdata.Al-Shedivatet</tspan><tspan x="0 5 8 13 17 22 27 32 37 41 47 57 60 62 66 71 77 82 90 95 101 105 112 117 120 125 129 134 139 144 149 154 158 164 169 174 182 193 195 198 202 207 213 218 226 231" y="323">al.(2017),Wilson,Hu,etal.(2016a),andWilson,Hu,</tspan><tspan x="0 4 12 17 20 27 30 35 40 45 50 56 64 69 73 78 84 89 93 101 107 111 113 119 128 133 138 142 152 157 162 167 171 176 183 188 193 196 203 208 212 217 225 229" y="335">etal.(2016b)proposeusingdeepneuralnetworksto</tspan><tspan x="0 3 7 12 16 24 29 34 38 43 48 53 56 62 67 72 76 79 84 89 96 101 104 108 112 117 121 124 132 135 139 144 155 159 164 171 176 181 186 189 191 196 202 205 212 217 222 226 231" y="347">learnkernelfunctionsdirectlyfromtheavailabledata.</tspan><tspan x="0 7 10 14 20 25 30 35 45 49 54 59 63 71 77 81 86 92 97 100 105 108 116 121 125 131 134 138 143 151 160 165 169 177 182 187 192 195 200 203 212 220 225 231" y="359">Althoughthoseproposalsachievemorefexiblemod-</tspan><tspan x="0 4 7 15 19 25 30 39 43 49 54 58 66 73 76 80 90 94 99 108 115 122 133 138 142 146 152 156 159 166 170 175 180 189 193 199 203 212 216 221 230" y="371">elsthanthosewiththeRBFkernel,theyturnsome</tspan><tspan x="0 7 12 17 21 25 28 33 42 50 56 61 69 81 86 91 97 100 105 109 113 116 121 126 133 136 141 145 149 154 159 162 167 173 176 180" y="383">BayesianGPLVMexpressionsintractable.</tspan><tspan x="0 6 11 19 28 35 40 44 49 53 61 65 70 74 85 89 98 105 108 112 115 119 125 129 133 136 141 146 149 153 161 168 171 175 181 186 188 192 197 203 211 215 223 228 231" y="401">Someworks,suchasEleftheriadis,Nicholson,etal.</tspan><tspan x="0 4 9 14 19 24 32 37 42 52 58 63 65 68 76 82 86 92 99 104 109 119 127 131 134 138 142 148 152 157 161 170 174 179 184 189 194 198 205 211 216 221 227 230" y="413">(2017)andSalimbeniandDeisenroth(2017),handle</tspan><tspan x="0 6 11 16 19 27 34 44 49 54 57 63 67 70 78 85 88 92 101 107 112 117 121 125 129 134 137 146 149 155 160 166 170 177 183 187 190 195 204 208 213 222 226 231" y="424">non-RBFkernelswithuncertaininputsusingtheso-</tspan><tspan x="0 4 9 12 15 19 28 33 37 41 47 52 56 61 69 73 77 81 84 88 93 97 100 105 113 117 121 124 128 133 141 145 153 156 161 166 174 182 187 193 201 211 215 218 221 223 229" y="436">called“reparametrizationtrick”(KingmaandWelling</tspan><tspan x="0 5 10 15 20 28 35 40 44 49 54 60 69 73 82 87 90 97 102 107 112 117 125 128 138 142 148 157 163 167 173 179 181 191 195 199 204 208 214 219 223 227 230" y="448">2014;Rezendeetal.2014)inthedoublystochastic</tspan><tspan x="0 5 10 14 16 21 25 28 33 38 43 49 52 57 60 65 69 73 79 83 90 93 97 102 111 115 122 127 131 136 142 145 150 154 158 163 168 174 178 183 191 196 205 212 215 218 222 225 230" y="460">variationalinferenceframework,introducedbyTitsias</tspan><tspan x="0 5 11 20 26 26 31 35 40 44 49 53 60 64 69 74 77 80 83 91 95 100 105 110 115 119 127 134 140 143 150 155 161 166 170 175 180 184 194 198 202 206 211 214 218 226 228" y="472">andL´azaro-Gredilla(2014).Thisapproachresultsin</tspan><tspan x="0 8 13 18 23 26 31 34 41 44 49 52 57 61 65 71 75 82 90 95 99 104 109 115 120 123 128 133 137 143 148 154 158 163 168 176 180 184 188 193 198 201 206 214 217 221 226" y="484">afexibleinferencemethodology,but,bystrayingfrom</tspan><tspan x="0 4 9 17 22 27 30 35 39 47 50 55 58 62 66 69 76 81 86 89 92 97 101 104 109 114 119 125 133 138 141 147 152 158 162 167 170 177 182 187 192 199 204 209 216 220 225 231" y="496">thedeterministicvariationalmethods,itdoesnotsup-</tspan><tspan x="0 6 11 15 23 26 31 34 39 43 47 53 57 66 71 75 78 84 93 99 104 109 115 117 122 131 136 142 147 150 153 157 164 168 176 179 184 194 203 207 211 217 222 227 231" y="508">portinferenceusingpopularquasi-Newtonmethods,</tspan><tspan x="0 3 6 11 19 23 29 38 45 49 53 59 64 68 74 79 85 88 93 97 101 106 111 115 120 127 132 135 141 144 149 153 158 163 169 174 179 185 190 200 203 211 217 225 230" y="520">liketheBroyden–Fletcher–Goldfarb–Shanno(BFGS)</tspan>
    </text>
</svg>