<svg xmlns="http://www.w3.org/2000/svg" viewBox="0 0 816 1056"><g font-family="NimbusRomNo9L"><text transform="matrix(1.33333 0 0 1.33333 103 95)" style="-inkscape-font-specification:NimbusRomNo9L-Regu" font-size="23.9"><tspan x="0 17 29 37 48 66 79 85 93 109 127 142 159 171 179 197 208 215 221 232 243 263 276 288 296 303 311 323 329 336 356 374 380 387 399 409 420 427 433 445" y="0">No-PASt-BO:NormalizedPortfolioAllocation</tspan><tspan x="56 69 75 83 94 101 111 123 143 151 163 179 195 206 218 229 238 245 255 276 293 305 311 318 337 343 354 365 371 378 390" y="28">StrategyforBayesianOptimization</tspan></text><text transform="matrix(1.33333 0 0 1.33333 109 174)" style="-inkscape-font-specification:NimbusRomNo9L-Regu" font-size="11"><tspan x="0 7 12 15 20 26 35 40 49 54 61 67 72 76 81 87 92 97 102 105 110 115 121 129 134 140 143 147 154 162 169 176 183 192 199 207 213 219 228 234 239 245 250 254 261" y="0">ThiagodeP.Vasconcelos,DanielA.R.M.A.deSouza,C</tspan><tspan x="269" y="0">´</tspan><tspan x="268 273 277 282 290 297 303 310 317 327 332 335 338 343 351 356 362 371 375" y="0">esarL.C.MattosandJo</tspan><tspan x="381" y="0">˜</tspan><tspan x="381 386 395 400 406 411 418 426 431 440 445" y="0">aoP.P.Gomes</tspan></text><text transform="matrix(1.33333 0 0 1.33333 315 191)" style="-inkscape-font-specification:NimbusRomNo9L-ReguItal" font-size="10"><tspan x="0 7 12 17 22 25 28 35 40 45 51 56 62 69 74 81 86 91 94 98 106 111 115 118 122 127 132" y="0">DepartmentofComputerScience</tspan><tspan x="12 18 22 27 31 35 40 46 54 59 61 66 70 74 78 81 83 91 96 102 109 114 119" y="12">FederalUniversityofCear</tspan><tspan x="123" y="12">´</tspan><tspan x="122" y="12">a</tspan></text><text transform="matrix(1.33333 0 0 1.33333 350 224)" style="-inkscape-font-specification:NimbusRomNo9L-Regu" font-size="10"><tspan x="0 5 10 14 16 21 24 28 32 37 40 47 53 59 66 69 73 78 81" y="0">Fortaleza-CE,Brazil</tspan><tspan x="-164 -161 -156 -154 -149 -144 -139 -134 -129 -125 -120 -116 -112 -107 -102 -98 -93 -90 -85 -81 -72 -67 -62 -60 -52 -47 -45 -42 -39 -35 -30 -22 -16 -11 -7 -2 1 5 8 11 16 24 29 32 42 44 47 52 54 59 62 67 69 74 77 83 88 92 96 100 104 106 109 114 119 124 126 131 141 146 150 152 157 161 165 168 173 176 182 184 189 194 199 201 206 216 221 225 227 232 236 240 243 248" y="12">thiagodpvasconcelos@hotmail.com,danielramos@lia.ufc.br,cesarlincoln@dc.ufc.br,jpaulo@dc.ufc.br</tspan></text><text transform="matrix(1.33333 0 0 1.33333 79 286)" style="-inkscape-font-specification:NimbusRomNo9L-MediItal" font-size="9"><tspan x="0 6 10 14 16 20 24 28" y="0">Abstract</tspan></text><text transform="matrix(1.33333 0 0 1.33333 120 286)" style="-inkscape-font-specification:NimbusRomNo9L-Medi" font-size="9"><tspan x="0 9 15 19 24 28 31 34 38 49 56 61 64 66 74 76 80 85 88 90 95 105 108 114 121 129 132 141 151 154 158 162 170 174 180 185 189 199 202 206" y="0">—BayesianOptimization(BO)isaframeworkfor</tspan><tspan x="-41 -36 -33 -29 -25 -20 -17 -12 -7 1 6 11 14 16 24 26 30 34 37 40 44 54 57 62 66 73 76 83 87 91 96 100 104 106 111 113 116 124 128 133 135 138 143 148 150 158 161 165 173 177 182 187 191 196 199 202 206" y="10">black-boxoptimizationthatisespeciallysuitableforexpensive</tspan><tspan x="-41 -37 -32 -29 -22 -19 -14 -9 -5 -2 1 5 10 14 20 27 34 39 44 52 55 60 68 76 80 83 92 97 102 106 109 116 121 128 137 143 154 158 161 165 170 174 176 179 184 192 198 201 206" y="20">costfunctions.AmongthemainpartsofaBOalgorithm,the</tspan><tspan x="-41 -36 -32 -27 -22 -20 -16 -14 -11 -8 -4 3 6 11 16 20 23 26 30 38 40 46 51 56 59 64 69 74 79 86 90 95 98 103 108 110 118 123 127 131 134 139 144 148 152 156 160 162 167 171 178 180 186 190 195 198 203 207" y="30">acquisitionfunctionisoffundamentalimportance,sinceitguides</tspan><tspan x="-41 -38 -33 -26 -21 -16 -13 -11 -3 -1 3 8 11 13 18 26 30 33 37 42 46 48 51 56 67 72 80 83 87 91 96 100 102 107 110 112 117 125 128 133 140 145 150 154 158 162 165 169 172 177 180 188 192 198 201 206" y="40">theoptimizationalgorithmbytranslatingtheuncertaintyofthe</tspan><tspan x="-41 -37 -33 -29 -25 -21 -17 -14 -11 -7 1 9 13 18 22 28 30 38 46 51 54 56 59 61 64 72 79 83 88 91 96 100 107 110 114 121 125 130 134 142 147 151 153 158 164 167 175 180 187 191 195 200 202 207" y="50">regressionmodelinautilitymeasureforeachpointtobeevalu-</tspan><tspan x="-41 -36 -33 -29 -24 -20 -13 -9 -4 0 2 7 11 15 18 23 30 33 38 42 50 54 58 63 67 71 74 79 82 86 89 93 97 100 102 107 114 119 124 131 136 140 144 146 151 158 163 168 173 177 182 187 189 193 195 198 201 205" y="60">ated.Consideringsuchaspect,selectionanddesignofacquisition</tspan><tspan x="-41 -38 -33 -28 -24 -21 -18 -14 -9 -1 3 7 16 20 25 33 38 45 48 53 62 69 74 77 85 90 94 99 104 106 111 119 123 127 131 135 139 143 147 156 159 164 169 171 175 183 186 195 201 208" y="70">functionsareoneofthemostpopularresearchtopicsinBO.</tspan><tspan x="-41 -36 -33 -28 -24 -16 -11 -3 1 3 8 13 15 23 28 32 37 42 44 48 50 53 55 60 69 72 77 82 86 89 91 96 105 111 116 123 128 132 137 141 145 154 157 166 171 175 179 187 192 196 199 202 206" y="80">Sincenosingleacquisitionfunctionwasprovedtohavebetter</tspan><tspan x="-41 -36 -32 -28 -25 -21 -17 -9 -5 0 4 11 14 22 26 29 35 38 42 45 50 54 59 67 73 77 80 82 85 89 93 96 100 105 108 110 114 119 123 131 135 140 145 149 154 158 162 170 174 179 184 187 190 193 196 203 207" y="90">performanceinalltasks,awell-establishedapproachconsistsof</tspan><tspan x="-41 -37 -33 -31 -27 -23 -20 -17 -12 -5 0 3 6 9 13 17 21 26 32 36 40 45 50 53 56 59 62 64 69 77 80 85 90 94 97 99 104 109 116 120 123 127 132 140 143 148 155 158 161 165 169 173 176 179 183 188 195 199 206" y="100">selectingdifferentacquisitionfunctionsalongtheiterationsofa</tspan><tspan x="-41 -35 -25 -21 -16 -12 -8 -3 0 2 7 12 17 21 29 33 38 42 50 54 63 67 72 77 81 86 90 94 99 105 108 113 120 127 132 135 142 146 151 156 163 167 170 174 179 183 185 188 193 204 207" y="110">BOexecution.Insuchanapproach,theGP-Hedgealgorithmis</tspan><tspan x="-41 -33 -27 -24 -19 -15 -13 -5 0 3 7 16 20 25 28 31 35 43 48 50 55 59 67 69 72 79 82 85 92 97 100 102 106 109 112 120 124 129 137 142 146 151 159 164 168 172 175 179 183 191 195 200 204 208" y="120">awidelyusedoptiongivenitssimplicityandgoodperformance.</tspan><tspan x="-41 -34 -30 -27 -22 -19 -16 -9 -6 -3 4 7 12 16 20 24 28 35 38 46 51 55 59 62 66 71 78 83 88 93 95 98 102 106 109 112 116 121 125 131 138 143 146 153 157 162 166 174 178 183 187 193 201 205" y="130">Despiteitssuccessinvariousapplications,GP-Hedgeshowsan</tspan><tspan x="-41 -36 -31 -26 -22 -18 -16 -12 -7 -3 0 7 11 16 20 24 29 33 36 40 44 46 50 53 55 62 67 73 77 81 85 90 94 99 102 105 110 117 122 130 134 137 142 147 152 155 161 166 170 174 177 181 185 193 197 202 206" y="140">undesirablecharacteristicofaccountingonallpastperformance</tspan><tspan x="-41 -33 -29 -25 -21 -16 -13 -9 -2 2 9 13 17 21 29 34 38 43 48 50 53 56 59 61 66 74 77 82 87 91 94 96 101 109 112 120 123 127 130 134 138 144 147 152 159 164 168 172 178 181 186 191 195 198 201 205" y="149">measuresofeachacquisitionfunctiontoselectthenextfunction</tspan><tspan x="-41 -38 -31 -26 -19 -14 -10 -6 -1 4 7 15 18 23 25 32 36 40 44 48 53 57 62 66 74 78 85 90 95 102 107 111 114 119 123 129 134 138 141 146 148 153 157 165 168 175 180 188 190 195 198 201 203 208" y="159">tobeused.Inthiscase,goodorbadvaluesobtainedinaninitial</tspan><tspan x="-41 -38 -35 -31 -27 -23 -20 -17 -13 -6 2 6 13 16 23 28 32 36 42 45 50 56 60 65 69 72 76 82 87 92 95 100 106 111 115 120 125 127 131 133 136 139 143 150 153 158 163 167 170 173 177 185 187 192 198 201 206" y="169">iterationmayimpactthechoiceoftheacquisitionfunctionforthe</tspan><tspan x="-41 -37 -33 -30 -24 -19 -13 -10 -5 2 6 8 13 17 21 24 27 32 39 45 51 55 58 64 67 72 76 82 89 94 101 104 109 114 119 122 129 137 142 146 154 156 161 166 171 177 182 185 190 195 199 202 206" y="179">restofthealgorithm.Thisfactmayinduceadominantbehavior</tspan><tspan x="-41 -36 -30 -25 -16 -12 -8 -3 2 5 8 11 14 16 21 29 32 37 42 46 49 52 56 65 69 74 83 86 93 98 103 107 113 116 121 129 134 139 144 150 155 159 163 166 170 174 181 186 191 195 203 207" y="189">ofanacquisitionfunctionandimpactthefnalperformanceof</tspan><tspan x="-41 -38 -33 -26 -19 -15 -12 -7 -2 3 8 14 17 24 27 31 39 42 49 53 58 62 65 69 74 81 88 91 96 100 108 111 113 121 123 126 131 134 136 140 145 150 153 161 164 169 171 177 184 188 192 200 206" y="199">themethod.Aimingtoovercomesuchlimitation,inthisworkwe</tspan><tspan x="-41 -36 -32 -28 -23 -18 -15 -8 -1 3 8 12 14 19 24 29 34 39 46 52 55 62 66 71 75 79 84 89 93 101 105 112 119 123 126 131 138 143 146 149 155 162 166 169 174 179 184 188 192 197 202 206" y="209">proposeavariantofGP-Hedge,namedNo-PASt-BO,thatreduce</tspan><tspan x="-41 -38 -33 -24 -21 -16 -11 -6 -2 3 7 16 21 29 32 37 46 51 55 59 67 71 76 80 83 88 92 95 98 102 107 110 118 127 131 135 139 143 148 152 155 162 167 172 181 189 193 196 201 205" y="219">theinfuenceoffarpastevaluations.Moreover,ourmethod</tspan><tspan x="-41 -36 -32 -28 -25 -21 -16 -13 -4 5 10 15 17 20 23 26 28 38 43 47 51 59 63 66 68 72 77 80 82 87 97 100 105 109 117 121 125 130 132 137 146 149 154 163 166 170 175 179 182 185 189 194 203 205" y="229">presentsabuilt-innormalizationthatavoidsthefunctionsin</tspan><tspan x="-41 -38 -33 -24 -19 -15 -11 -8 -5 -1 2 4 13 16 25 30 34 39 47 51 53 61 63 66 70 78 83 87 92 97 101 106 109 111 114 117 119 123 127 133 136 141 146 154 157 164 169 173 177 182 184 189 198 201 206" y="239">theportfoliotohavesimilarprobabilities,thusimprovingthe</tspan><tspan x="-41 -37 -32 -27 -25 -20 -16 -12 -9 -7 -2 3 10 16 21 30 34 39 42 47 49 54 58 68 72 76 79 84 87 90 98 102 112 117 121 124 134 138 142 147 150 155 159 162 165 173 178 183 192 196 200 205 207" y="249">exploration.Theobtainedresultsonbothsyntheticandreal-</tspan><tspan x="-41 -34 -30 -26 -24 -13 -8 -3 0 2 10 12 16 21 24 26 30 41 44 49 52 57 66 69 74 79 81 85 90 93 102 105 110 115 124 130 135 138 142 149 154 157 160 166 178 183 187 191 195 199 204 207" y="259">worldoptimizationtasksindicatethatNo-PASt-BOpresents</tspan><tspan x="-41 -37 -32 -25 -20 -16 -13 -10 -8 -5 -1 7 12 16 20 22 27 31 38 43 48 52 59 64 69 77 81 84 90 95 99 106 111 116 119 124 128 132 134 139 143 150 157 164 170 173 180 183 188 193 197" y="269">competitiveperformanceandalwaysoutperformsGP-Hedge.</tspan></text><text transform="matrix(1.33333 0 0 1.33333 79 658)" style="-inkscape-font-specification:NimbusRomNo9L-MediItal" font-size="9"><tspan x="0 3 8 13 17 26 30 34 38 45" y="0">IndexTerms</tspan></text><text transform="matrix(1.33333 0 0 1.33333 143 658)" style="-inkscape-font-specification:NimbusRomNo9L-Medi" font-size="9"><tspan x="0 9 15 19 24 28 31 34 38 47 54 59 62 65 72 75 79 83 86 89 93 98 105 111 115 120 125 128 131 134 137 139 144 153 158 163 168 172 175 178 182 187 191" y="0">—BayesianOptimization,AcquisitionFunctions,</tspan><tspan x="-58 -53 -48 -44 -41 -39 -34 -32 -29 -21 -15 -12 -10 -5 -1 3 6 9 13" y="10">PortfolioAllocation</tspan></text><text transform="matrix(1.33333 0 0 1.33333 181 701)" style="-inkscape-font-specification:NimbusRomNo9L-Regu" font-size="10"><tspan x="0 4 12" y="0">I.I</tspan></text><text transform="matrix(1.33333 0 0 1.33333 202 701)" style="-inkscape-font-specification:NimbusRomNo9L-Regu" font-size="8"><tspan x="0 6 12 17 23 30 36 42 47 50 56" y="0">NTRODUCTION</tspan></text><text transform="matrix(1.33333 0 0 1.33333 79 722)" style="-inkscape-font-specification:NimbusRomNo9L-Regu" font-size="10"><tspan x="0 7 11 16 20 24 27 32 39 44 49 52 55 62 65 70 74 77 80 85 92 96 102 109 115 118 123 126 132 135 142 149 153 157 162 167 171 176 179 182 186 192 197 201 205 208 213 221 224 227 231 235 238" y="0">Bayesianoptimization(BO,[1])isasequentialdesignstrat-</tspan><tspan x="-10 -6 -1 7 12 17 21 25 33 38 46 49 54 62 68 73 78 82 86 89 93 101 105 108 112 120 124 131 136 140 148 151 156 163 168 170 175 180 185 191 196 201 203 206 214 217 221 226 228 231 236" y="12">egybasedontheBayesianframeworkforglobaloptimization</tspan><tspan x="-10 -5 3 8 12 17 22 27 34 44 47 52 57 61 64 67 72 77 81 87 90 93 97 99 106 111 116 120 124 127 132 134 144 149 154 156 160 169 173 178 183 187 190 193 198 203 211 218 221 223 228 233 238" y="24">ofunknownfunctions,i.e.,possiblynoisyfunctionswithout</tspan><tspan x="-10 -5 0 5 12 19 24 27 32 35 40 45 48 52 56 60 70 74 79 84 88 92 96 100 103 108 115 119 124 132 137 140 145 150 152 157 162 167 170 175 178 183 187 194 199 201 204 209 214 219 223 228 233 237" y="36">knownclosed-formexpressionandgradientinformation.Ithas</tspan><tspan x="-10 -5 -1 4 12 20 22 27 32 34 43 48 52 56 65 67 76 79 84 92 99 104 108 114 119 122 127 131 134 138 146 149 153 157 162 166 172 176 181 185 194 198 206 210 214 217 221 226 228 231 236" y="48">beenwidelyusedinthemostdiversetasks,suchasselection</tspan><tspan x="-10 -5 3 7 12 17 22 25 30 35 38 42 50 54 57 62 65 73 76 81 89 97 101 105 110 113 118 127 130 134 138 142 147 149 154 164 168 171 176 181 184 187 190 195 202 210 214 219 222 227 230 235 239" y="60">ofhyperparametersformachinelearningalgorithms[2]–[6],</tspan><tspan x="-10 -6 -1 4 7 11 15 22 27 32 35 38 42 45 49 57 60 69 72 77 82 87 90 92 97 105 108 113 116 122 126 131 134 140 145 150 153 158 165 170 173 177 186 190 193 196 201 206 208 215 220 224 228 231 236" y="72">controlpoliciesinrobotics[7],[8],automatedcircuitdesign</tspan><tspan x="-10 -7 -2 2 8 11 16 21 24 30 35 37 42" y="84">[9],[10],etc.</tspan><tspan x="0 6 11 20 27 38 43 48 53 56 61 65 70 79 82 90 95 98 103 108 112 115 119 122 125 134 139 143 148 151 156 163 166 175 179 184 188 193 197 201 203 208 217 224 229 233 237" y="96">TheBOapproachisespeciallyusefulinscenarioswhere</tspan><tspan x="-10 -7 -2 8 13 18 21 25 30 33 35 40 50 54 59 64 68 71 74 79 90 92 102 107 112 115 118 121 132 135 146 150 155 159 162 167 171 174 178 187 193 198 208 211 216 221 226 229 233 238" y="108">theobjectivefunctioniscostlytoevaluate.Theinherent</tspan><tspan x="-10 -5 0 4 9 12 15 19 22 27 30 39 44 49 54 57 60 65 70 73 77 87 92 101 104 109 118 124 129 134 138 142 145 149 158 166 171 173 178 183 188 193 196 201 206 215 220 223 225 230 237" y="120">uncertaintyconsideredbytheBayesianmethodologyallows</tspan></text><text transform="matrix(1.33333 0 0 1.33333 76 907)" style="-inkscape-font-specification:NimbusRomNo9L-Regu" font-size="8"><tspan x="0 5 9 11 17 21 24 26 28 32 34 41 46 50 56 60 64 66 72 76 82 89 93 95 99 102 105 109 114 119 123 126 130 134 137 144 147 151 153 157 161 165 173 175 179 186 191 197 206 210 213 217 221 223 227 236 240" y="0">ThisarticlewaspartofaprojectfnancedthroughtheR&amp;Dprogramof</tspan><tspan x="-8 -6 -2 6 11 14 17 21 23 25 28 31 39 44 46 50 53 55 58 60 68 73 77 80 83 87 95 101 105 108 112 116 124 126 132 138 143 147 152 155 161 167 169 171 179 183 187 193 197 201 208 212 218 221 224 228 232 236 240" y="9">theBrazilianElectricEnergyAgency(ANEEL),withnumberPD-00063-</tspan><tspan x="-8 -4 0 4 11 14 18 25 27 31 35 39 43 49 53 60 65 70 74 82 87 91 94 97 101 107 111 115 121 127 131 137 141 144 148 152 154 161 165 169 173 176 179 183 185 187 191 197 202 205 211 215 219 224 230 234 236 240" y="18">3045andfundedbyCPFLEnergyandCompanhiaEnergeticaRiodasAntas</tspan><tspan x="-8 -5 0 5 10 16 22 24 29 34 38 44 47 51 54 58 62 64 70 73 76 79 85 89 92 96 100 104 110 112 116 120 124 130 132 136 142 145 149 153 157 161 164 168 171 174 178 187 192 196 198 201 205 210 213 217 219 223 225 227 229 233 237 241" y="27">(CERAN).TheauthorsalsoacknowledgethesupportfromDelfosIntelligent</tspan><tspan x="-8 -1 3 5 9 11 15 19 22 26 30 33" y="36">Maintenance.</tspan></text><text transform="matrix(1.33333 0 0 1.33333 416 286)" style="-inkscape-font-specification:NimbusRomNo9L-Regu" font-size="10"><tspan x="0 3 8 16 25 33 38 41 50 55 58 63 68 70 75 80 87 91 96 101 104 109 112 117 120 122 127 137 142 150 152 157 166 171 176 179 182 190 192 197 201 204 207 212 221 226 231 239 243 246" y="0">foramoreeffcientexplorationoftheoptimizationdomain</tspan><tspan x="0 7 10 13 22 26 30 34 39 43 48 55 58 67 70 75 84 89 94 102 107 111 119 124 132 137 142 147 150 153 157 167 172 177 179 184 187 191 198 204 209 212 220 223 232 236 239 242 245 248" y="12">withrespecttothenumberofqueriedpoints.Thisiscriti-</tspan><tspan x="0 4 9 16 19 28 33 38 43 45 48 53 57 60 63 68 72 81 88 93 97 101 110 114 118 123 132 135 140 145 148 152 155 160 165 170 177 181 186 190 193 198 202 205 208 213 222 227 231 236 241 243 246" y="24">calinapplicationswhereeachindividualevaluationusually</tspan><tspan x="0 3 7 12 17 20 25 29 36 40 45 50 54 57 61 66 69 72 76 82 87 92 97 102 106 109 113 119 124 129 134 136 141 148 152 157 165 170 175 178 182 185 188 193 198 202 208 212 216 219 224 227 230 236 242 247" y="36">involvessubstantialfnancialand/orcomputationaleffort.The</tspan><tspan x="0 5 10 14 19 22 25 29 32 37 40 47 54 57 60 67 71 75 79 84 88 93 98 101 108 111 116 123 126 131 136 140 143 146 151 158 161 168 173 180 185 190 193 196 203 206 210 215 222 227 231 236 241 243 246" y="48">uncertaintywithrespecttothefunctiontobeoptimizedusually</tspan><tspan x="0 3 10 17 22 27 32 35 37 42 50 55 59 62 67 75 77 82 90 97 102 106 110 114 117 121 130 135 138 143 148 152 156 163 166 174 179 186 189 192 197 204 208 216 221 224 232 235 240 245 249" y="60">ismodelledusingtheGaussianProcess(GP)framework[11].</tspan><tspan x="10 17 22 30 35 42 44 49 57 65 69 72 81 83 88 93 97 101 106 109 113 118 121 128 133 140 143 148 156 162 173 181 185 188 193 198 203 208 210 215 220 229 232 239 242 247" y="72">OneofthemainingredientsoftheBOmethodologyisthe</tspan><tspan x="0 4 9 12 17 21 24 27 31 39 43 48 53 58 60 64 67 70 73 77 85 89 94 99 103 106 109 113 118 124 131 136 139 143 151 154 157 161 166 170 173 177 180 185 191 194 199 206 211 216 221 225 228 231 236 238 243 246" y="84">so-calledacquisitionfunction,whichtranslatestheuncertainty</tspan><tspan x="0 3 14 16 21 31 34 39 43 53 58 63 71 75 78 89 92 103 113 117 119 127 132 135 145 148 159 163 168 172 175 180 184 187 197 200 205 210 215 218 220 225 236 239 244 248" y="96">inthetaskdomaintoasimpletoevaluatefunctionthat</tspan><tspan x="0 5 10 14 19 22 25 30 35 42 45 50 58 62 67 72 77 81 84 88" y="108">quantifestheexpected</tspan></text><text transform="matrix(1.33333 0 0 1.33333 545 429)" style="-inkscape-font-specification:NimbusRomNo9L-ReguItal" font-size="10"><tspan x="0 5 8 11 13 16 19" y="0">utility</tspan></text><text transform="matrix(1.33333 0 0 1.33333 581 429)" style="-inkscape-font-specification:NimbusRomNo9L-Regu" font-size="10"><tspan x="0 5 12 16 21 25 34 39 44 46 51 54 60 66 71 75 84 87 92 97 102 104 107 112 121 123" y="0">ofeachpoint.Suchfunctionis</tspan><tspan x="-124 -121 -116 -112 -104 -99 -94 -91 -88 -81 -78 -73 -69 -61 -59 -51 -47 -43 -40 -35 -31 -26 -23 -18 -11 -6 -1 4 9 14 19 22 27 32 35 43 48 55 59 64 68 71 76 80 83 88 93 98 100 103 107 110 115 118 123" y="12">thenoptimizedtoselectthenextpointtobeevaluated,i.e.,the</tspan><tspan x="-124 -119 -115 -110 -104 -100 -95 -90 -85 -82 -77 -73 -70 -63 -59 -54 -51 -46 -44 -41 -36 -31 -26 -18 -14 -6 -2 3 7 10 15 20 22 25 30 35 40 45 53 57 61 66 70 74 78 84 88 92 97 102 105 109 112 115 117 122" y="24">nextcandidatesolution.However,althoughseveralacquisition</tspan><tspan x="-124 -120 -115 -111 -106 -103 -101 -96 -91 -83 -78 -74 -69 -61 -56 -51 -47 -38 -33 -30 -25 -20 -15 -11 -6 2 5 14 17 22 30 33 35 38 43 46 50 53 58 61 66 72 75 80 84 88 96 99 106 111 116 123" y="36">functionshavebeenproposedintheliterature,thereisnota</tspan><tspan x="-124 -120 -117 -112 -107 -104 -97 -92 -87 -82 -79 -75 -67 -64 -59 -55 -49 -46 -38 -34 -31 -24 -20 -15 -8 -3 2 5 7 12 19 22 27 34 38 43 51 54 59 63 71 74 79 84 88" y="48">singlechoicethatisalwaysbetterforanytask[12].</tspan><tspan x="-114 -107 -102 -99 -95 -88 -83" y="60">Hoffman</tspan></text><text transform="matrix(1.33333 0 0 1.33333 483 509)" style="-inkscape-font-specification:NimbusRomNo9L-ReguItal" font-size="10"><tspan x="0 4 12 17 20" y="0">etal.</tspan></text><text transform="matrix(1.33333 0 0 1.33333 519 509)" style="-inkscape-font-specification:NimbusRomNo9L-Regu" font-size="10"><tspan x="0 3 8 13 21 24 29 33 38 41 45 55 58 63 72 76 80 85 88 92 100 104 109 112 115 120 125 129 139 142 146 150 155 164 169" y="0">[12]tackledtheaforementionedissueby</tspan><tspan x="-77 -72 -69 -64 -59 -54 -50 -47 -42 -33 -24 -19 -17 -12 -9 -4 -1 3 8 11 16 20 27 32 37 42 47 49 54 64 68 73 78 81 86 91 95 105 108 113 121 128 133 138 142 147 150 155 164 169" y="12">proposingahierarchicalhedgingapproachformanagingan</tspan><tspan x="-77 -73 -68 -64 -59 -56 -53 -48 -38 -33 -28 -25 -22 -19 -14 -11 -8 3 8 18 22 26 31 36 39 43 46 49 51 56 67 71 76 81 85 88 91 96 101 111 116 120 124 128 139 144 155 158 163 168 170" y="24">adaptiveportfolioofacquisitionfunctionsbasedontheir</tspan><tspan x="-77 -72 -68 -64 -55 -50 -46 -43 -39 -34 -31 -23 -19 -14 -10 -5 -1 7 13 15 23 26 29 33 42 47 52 57 60 65 70 74 79 83 93 98 102 107 117 122 127 131 142 147 152 155 159 164 169" y="36">pastperformances.Similarapproacheshavebeenpursued</tspan><tspan x="-77 -72 -63 -58 -55 -50 -46 -37 -33 -28 -25 -20 -15 -12 -8 -1 5 10 14 19 22 25 30 33" y="48">byotherauthors.Shahriari</tspan></text><text transform="matrix(1.33333 0 0 1.33333 573 573)" style="-inkscape-font-specification:NimbusRomNo9L-ReguItal" font-size="10"><tspan x="0 4 12 17 20" y="0">etal.</tspan></text><text transform="matrix(1.33333 0 0 1.33333 609 573)" style="-inkscape-font-specification:NimbusRomNo9L-Regu" font-size="10"><tspan x="0 3 8 13 21 26 31 36 40 45 50 59 61 66 75 80 84 87 92 94 99 104" y="0">[13]expandstheoriginal</tspan><tspan x="-145 -140 -135 -130 -125 -117 -112 -102 -97 -94 -89 -84 -79 -75 -73 -68 -58 -50 -45 -40 -35 -33 -28 -20 -15 -12 -9 -6 -2 1 4 9 18 23 28 32 36 45 50 59 62 67 70 75 79 87 91 94 96 101" y="12">hedgebyproposingachoicecriterionbasedoninformation</tspan><tspan x="-145 -142 -137 -132 -127 -124 -120 -117 -114 -104 -100 -95 -90 -86 -83 -78 -74 -71 -66 -63 -61 -56 -51 -47 -39 -32 -29 -26 -21 -16 -11 -6 4 7 17 27 35 40 42 45 48 51 56 59 67 71 82 87 91 96 101 104" y="24">theoreticconsiderations.Althoughinamulti-armedbandit</tspan><tspan x="-145 -142 -137 -133 -130 -125 -122 -117 -107 -103 -98 -93 -90 -86 -81 -78 -71 -66 -61 -56" y="36">learningcontext,Shen</tspan></text><text transform="matrix(1.33333 0 0 1.33333 546 621)" style="-inkscape-font-specification:NimbusRomNo9L-ReguItal" font-size="10"><tspan x="0 4 12 17 19" y="0">etal.</tspan></text><text transform="matrix(1.33333 0 0 1.33333 581 621)" style="-inkscape-font-specification:NimbusRomNo9L-Regu" font-size="10"><tspan x="0 3 8 13 21 26 28 32 42 46 51 56 60 63 68 72 80 89 94 99 102 105 108 113 116 119 124" y="0">[14]alsoconsideraportfolio-</tspan><tspan x="-124 -119 -115 -111 -106 -98 -94 -91 -88 -84 -81 -77 -72 -63 -60 -55 -48 -44 -39 -36 -32 -27 -22 -20 -15 -6 -2 3 8 11 16 19 23 26 29 34 42 47 52 60 64 69 74 77 82 85 87 92 95 97 102 111 116 121 124" y="12">basedstrategyforbalancingexplorationandexploitationdur-</tspan><tspan x="-124 -121 -116 -106 -104 -99 -89 -85 -81 -76 -71 -67 -62 -59 -56 -52 -44 -39 -34 -30 -27 -23 -21 -16 -6 -1 3 8 12 17 22 27 30 34 42 48 53 57 62 67 69 72 77 84 90 95" y="24">ingthesequentialdecisionprocedure.Recently,Lyu</tspan></text><text transform="matrix(1.33333 0 0 1.33333 721 652)" style="-inkscape-font-specification:NimbusRomNo9L-ReguItal" font-size="10"><tspan x="0 4 12 17 20" y="0">etal.</tspan></text><text transform="matrix(1.33333 0 0 1.33333 416 668)" style="-inkscape-font-specification:NimbusRomNo9L-Regu" font-size="10"><tspan x="0 3 8 16 21 24 29 34 39 43 47 56 60 69 74 77 79 84 87 92 96 99 102 107 115 119 122 125 129 132 136 141 150 153 158 162 169 173 178 183 187 190 195 199 203 211 213 218 227 234 239 242 245 248" y="0">[9]proposedanalternativestrategythatconsidersthemulti-</tspan><tspan x="0 5 10 13 17 22 24 27 32 42 47 52 55 57 65 68 72 77 80 82 87 98 103 112 120 125 128 130 133 138 141 151 155 160 165 170 173 176 179 182 185 190 200 204 209 214 218 221 224 229 234 243 246" y="12">objectiveoptimizationofmultipleacquisitionfunctionsto</tspan><tspan x="0 5 10 13 17 20 30 40 45 50 53 57 60 70 74 77 82 87 95 98 102 107 120 127 132 136 140 149 154 158 163 168 171 176 180 183 193 198 203 206 211 213 223 227 231 242 247" y="24">obtainaParetofrontfromwherecandidatepointscanbe</tspan><tspan x="0 4 8 16 21 24 28 37 39 48 56 61 65 68 72 81 84 89 92 97 100 105 110" y="36">sampledinabatchfashion.</tspan><tspan x="10 17 22 25 30 33 36 43 46 51 57 62 67 72 77 83 88 93 101 106 110 113 116 118 123 131 134 138 143 147 152 157 165 170 173 180 185 193 195 200 207 212 216 221 226 229 233 236 238 241 246" y="48">Despitetheabovecompellingrecentworkontheacquisition</tspan><tspan x="0 3 8 13 18 20 23 28 36 40 45 50 53 58 65 70 73 78 83 86 90 98 103 106 111 118 122 126 130 135 138 140 143 148 156 160 165 167 172 175 178 183 188 195 198 201 205 209 217 220 223 228 239 242 247" y="60">functionchoiceproblem,theresultingsolutionsstrayfromthe</tspan><tspan x="0 4 7 14 19 22 25 29 32 35 44 49 54 63 68 73 78 81 83 88 92 97 100 103 105 108 118 123 131 133 138 147 152 156 158 163 166 171 176 183 188 192 197 202 205 210 220 224 226 230 234 237 241 246" y="72">simplicityandapplicabilityoftheoriginalhedgingstrategy</tspan><tspan x="0 5 8 13 17 21 26 29 33 42 44 53 56 61 66 69 75 80 85 92 97 105 112 118 121 129 133 138 143 147 153 159 164 167 170 175 179 183 190 195 199 203 209 216 222 225 232 237 242 247" y="84">presentedin[12],namedGP-Hedge.Furthermore,GP-Hedge</tspan><tspan x="0 5 8 13 17 21 26 29 38 41 46 54 63 68 73 78 83 87 89 93 97 102 105 114 119 123 128 133 137 140 143 146 150 154 162 167 172 180 183 188 192 195 199 204 208 213 220 224 227 232 236 246 248" y="96">presentssomeundesirableproperties.Forinstance,sinceit</tspan><tspan x="0 4 9 13 18 23 28 31 41 45 49 59 62 67 78 83 85 89 92 97 100 103 108 112 121 126 130 134 137 142 145 153 158 163 167 178 183 192 195 200 211 214 219 224 226 231 234 239 244 248" y="108">accountsforthehistoricalperformanceoftheindividual</tspan><tspan x="0 4 9 14 19 22 25 28 31 34 39 49 52 57 62 67 70 72 77 82 92 94 105 109 113 116 120 125 133 136 141 150 155 160 165 173 177 182 187 192 194 199 204 207 216 220 225 228 233 236 239 244 249" y="120">acquisitionfunctionstoselectthenextcandidatesolution,</tspan><tspan x="0 3 8 11 13 16 20 28 33 36 40 44 47 52 57 61 66 74 78 83 86 91 95 104 109 117 121 124 127 132 136 144 149 154 159 169 174 182 187 191 201 206 210 213 217 222 225 233 237 242 247" y="132">initialdiscrepantvaluesofeithergoodorbadperformance</tspan><tspan x="0 4 9 17 22 27 34 39 43 48 56 58 62 70 73 78 86 91 96 100 103 106 108 117 122 129 131 136 144 148 153 155 160 164 167 170 175 183 187 190 193 198 200 205 210 214" y="144">cancompromisethequalityoftheselectionstrategy.</tspan><tspan x="10 13 22 25 30 32 40 47 52 55 64 71 79 83 86 97 100 108 113 117 122 127 132 135 143 151 159 164 169 172 177 182 190 195 200 203 206 210 215 217 220 225 228 233 238 242 246" y="155">Inthisworkweaimtoproposeamodifedportfolio-based</tspan><tspan x="0 7 19 27 31 34 39 44 49 54 56 61 66 76 79 84 89 96 101 106 110 114 118 123 131 135 144 147 152 161 169 174 177 185 189 194 199 208 211 214 222 224 227 232 234 237 242 247" y="167">BOmethodologythatovercomestheGP-Hedgelimitations</tspan><tspan x="0 7 12 15 18 26 34 38 41 46 49 53 56 61 64 69 78 81 83 91 96 100 104 112 117 125 130 133 138 144 152 157 164 168 173 178 182 187 191 195 204 208 212 217 222 227 231 239 242 247" y="179">whilemaintainingitseaseofuse.Ourapproachreducesthe</tspan><tspan x="0 3 8 13 18 23 28 32 42 47 55 58 63 71 76 80 84 92 96 101 105 108 113 118 120 123 128 133 142 145 155 159 164 169 174 176 186 189 194 203 206 211 215 220 225 229 233 243 248" y="191">infuenceoffarpastevaluationstoenabletherecoveryof</tspan><tspan x="0 3 8 11 13 16 20 23 26 34 39 43 51 56 61 64 67 72 76 83 86 91 99 104 108 113 118 121 125 127 130 133 138 146 149 154 159 164 166 169 174 179 186 190 195 203 206 214 218 223 228 231 239 242 247" y="203">initiallybadperformingacquisitionfunctionsandtoavoidthe</tspan><tspan x="0 5 10 18 20 25 30 35 39 47 52 60 62 67 70 73 76 80 83 86 94 99 104 109 118 123 127 131 134 139 142 150 153 158 167 170 175 180 184 187 190 195 200 204 210 219 224 227 232 236 241 246 249" y="215">dominanceofinitiallygoodperformingfunctions.Moreover,</tspan></text></g></svg>