<svg version="1.1" xmlns="http://www.w3.org/2000/svg">
    <defs>
        <g id="arxiv">
            <path d="M20.7 15.4l-1.9-4.96h1.41l1.4 3.58 1.37-3.58h.96l-1.92 4.96zm-4.4-5.8V8.48h1.33V9.6zm0 5.8v-4.96h1.33v4.96zm-6.98 0l2.15-3.3-2.05-3.4h1.63l1.36 2.26 1.48-2.25h1.12l-2.05 3.15 2.13 3.54h-1.62L12.02 13l-1.56 2.4zM6 15.4v-4.96h1.33v.93c.35-.7.88-1.05 1.6-1.05a1.4 1.4 0 01.24.03v1.2a1.6 1.6 0 00-.53-.1c-.54 0-.97.26-1.3.8v3.15zm-3.03-.53q-.67.65-1.44.65a1.47 1.47 0 01-1.06-.4 1.38 1.38 0 01-.4-1.03 1.45 1.45 0 01.65-1.27q.66-.45 1.9-.45h.34v-.45q0-.77-.88-.77a3.3 3.3 0 00-1.58.44v-.92a5.02 5.02 0 011.8-.35q1.96 0 1.96 1.55v2.2c0 .4.12.59.37.59a.8.8 0 00.18-.02l.03.75a2.75 2.75 0 01-.75.13c-.56 0-.9-.22-1.06-.65zm0-.72v-1.01h-.32c-.87 0-1.3.27-1.3.81a.64.64 0 00.64.65c.33 0 .65-.15.98-.45z"
                  fill="currentColor"/>
        </g>
        <g id="pdf">
            <path d="M21.38 5.09q.37.37.64 1.02.27.64.27 1.18V22.7q0 .54-.38.92-.37.37-.91.37H3q-.54 0-.91-.37-.38-.38-.38-.92V1.3q0-.54.38-.91Q2.46 0 3 0h12q.54 0 1.18.27.64.27 1.02.64zm-5.95-3.27v5.04h5.03q-.13-.4-.29-.55l-4.2-4.2q-.15-.15-.54-.29zm5.14 20.47V8.57H15q-.54 0-.91-.37-.38-.38-.38-.91V1.7H3.43V22.3zm-6.88-7.95q.44.35 1.12.75.8-.09 1.57-.09 1.97 0 2.37.66.21.3.03.7l-.02.02-.02.03v.01q-.08.5-.95.5-.65 0-1.54-.26-.9-.27-1.75-.7-2.96.31-5.25 1.1-2.04 3.51-3.24 3.51-.2 0-.37-.1l-.32-.15-.08-.07q-.14-.13-.08-.48.12-.54.75-1.23t1.76-1.29q.2-.12.31.08.03.03.03.05.7-1.13 1.43-2.63.91-1.83 1.4-3.51-.33-1.1-.41-2.14-.1-1.04.08-1.7.15-.54.57-.54h.3q.3 0 .46.2.24.28.12.9l-.05.12.01.1v.4q-.03 1.65-.19 2.58.74 2.2 1.96 3.18zm-7.72 5.5q.7-.31 1.84-2.1-.69.53-1.17 1.12-.5.59-.67.99zM11.3 7.54q-.2.56-.02 1.76l.1-.58.08-.58.06-.1L11.5 8v-.04q-.02-.3-.18-.49 0 .02-.02.03zm-1.66 8.85q1.81-.72 3.8-1.09-.02 0-.17-.12l-.21-.18q-1.02-.9-1.7-2.36-.36 1.15-1.11 2.64l-.6 1.1zm8.65-.21q-.32-.33-1.87-.33 1.02.38 1.66.38l.24-.01q0-.02-.03-.04z"
                  fill="currentColor"/>
        </g>
        <g id="external">
            <path d="M20 12.5V5q0-.4-.3-.7-.3-.3-.7-.3h-7.5q-.66 0-.92.6-.27.65.22 1.1l2.25 2.25L4.7 16.3q-.3.3-.3.7 0 .4.3.7l1.6 1.6q.3.3.7.3.4 0 .7-.3l8.35-8.35 2.25 2.25q.28.3.7.3.19 0 .4-.08.6-.26.6-.92zm4-8v15q0 1.86-1.32 3.18T19.5 24h-15q-1.86 0-3.18-1.32T0 19.5v-15q0-1.86 1.32-3.18T4.5 0h15q1.86 0 3.18 1.32T24 4.5z"
                  fill="currentColor"/>
        </g>
        <g id="github">
            <path d="M9.3 15.63c0 1.05-.54 2.76-1.83 2.76s-1.83-1.71-1.83-2.76c0-1.04.54-2.75 1.83-2.75s1.83 1.71 1.83 2.75zM24 13.11c0 1.6-.16 3.28-.88 4.75-1.89 3.83-7.1 3.74-10.83 3.74-3.79 0-9.31.13-11.28-3.74A10.7 10.7 0 010 13.11c0-2.1.7-4.08 2.08-5.68a7.83 7.83 0 01-.39-2.44c0-1.08.25-1.62.73-2.59 2.27 0 3.71.45 5.44 1.8a19.15 19.15 0 018.45-.04 7.73 7.73 0 015.4-1.76c.48.97.72 1.51.72 2.59 0 .82-.13 1.63-.38 2.41A8.61 8.61 0 0124 13.11zm-3.21 2.52c0-2.19-1.34-4.13-3.68-4.13-.94 0-1.85.17-2.8.3-.75.12-1.49.16-2.26.16-.76 0-1.5-.04-2.25-.16-.94-.13-1.85-.3-2.8-.3-2.34 0-3.67 1.94-3.67 4.13 0 4.4 4.02 5.07 7.52 5.07h2.4c3.52 0 7.54-.67 7.54-5.07zm-4.13-2.75c-1.3 0-1.84 1.71-1.84 2.75 0 1.05.55 2.76 1.83 2.76 1.3 0 1.84-1.71 1.84-2.76 0-1.04-.54-2.75-1.83-2.75z"
                  fill="currentColor"/>
        </g>
    </defs>
</svg>